/* XPM */
static char * collapse_xpm[] = {
"7 20 4 1",
" 	c None",
".	c #B0AFAE",
"+	c #82807E",
"@	c #B7B6B6",
".......",
".......",
".+@.+@.",
".@@.@@.",
".......",
".+@.+@.",
".@@.@@.",
".......",
".+@.+@.",
".@@.@@.",
".......",
".+@.+@.",
".@@.@@.",
".......",
".+@.+@.",
".@@.@@.",
".......",
".+@.+@.",
".@@.@@.",
"......."};
