/* XPM */
static char *collapse24_xpm[] = {
"8 24 4 1",
" 	c None",
"1	c #B0AFAE",
"2	c #82807E",
"3	c #B7B6B6",
"11111111",
"11111111",
"11231231",
"11311311",
"11111111",
"11231231",
"11311311",
"11111111",
"11231231",
"11311311",
"11111111",
"11231231",
"11311311",
"11111111",
"11231231",
"11311311",
"11111111",
"11231231",
"11331311",
"11111111",
"11231231",
"11311311",
"11111111",
"11111111"
};
