/* XPM */
static char * icewm2_xpm[] = {
"24 24 102 2",
"  	c None",
". 	c #294272",
"+ 	c #294172",
"@ 	c #284172",
"# 	c #294072",
"$ 	c #294171",
"% 	c #3C5483",
"& 	c #7288AE",
"* 	c #4C6693",
"= 	c #294173",
"- 	c #284171",
"; 	c #324A79",
"> 	c #A8B9D3",
", 	c #FBFCFD",
"' 	c #FFFFFF",
") 	c #FDFEFE",
"! 	c #6C8EC0",
"~ 	c #2D4B81",
"{ 	c #2D4375",
"] 	c #C9D5E6",
"^ 	c #FBFCFE",
"/ 	c #6B91C6",
"( 	c #3B6DB2",
"_ 	c #2D4B80",
": 	c #7F94B7",
"< 	c #C3D0E3",
"[ 	c #526995",
"} 	c #395282",
"| 	c #3B5B91",
"1 	c #3B6CB1",
"2 	c #3C6EB4",
"3 	c #3866A8",
"4 	c #CED9E9",
"5 	c #E0E7F2",
"6 	c #304778",
"7 	c #31538D",
"8 	c #2C4A7F",
"9 	c #ECF1F7",
"0 	c #A6B7D1",
"a 	c #2B4578",
"b 	c #2F5189",
"c 	c #F2F5FA",
"d 	c #99ABC9",
"e 	c #2D4A7F",
"f 	c #2F4F87",
"g 	c #2A4274",
"h 	c #3762A1",
"i 	c #3C6DB2",
"j 	c #2B487B",
"k 	c #31548C",
"l 	c #849ABE",
"m 	c #A0B2CE",
"n 	c #F9FAFD",
"o 	c #D8E1EE",
"p 	c #9CAECB",
"q 	c #5B7AAC",
"r 	c #3966A9",
"s 	c #345B97",
"t 	c #355D9B",
"u 	c #3C6EB3",
"v 	c #6C92C7",
"w 	c #DAE4F1",
"x 	c #3761A1",
"y 	c #3660A0",
"z 	c #4B79BA",
"A 	c #D6E0EE",
"B 	c #E5EBF4",
"C 	c #ECF0F7",
"D 	c #9BB3D5",
"E 	c #3762A4",
"F 	c #2A4172",
"G 	c #2F5087",
"H 	c #365F9E",
"I 	c #2B4577",
"J 	c #F5F7FB",
"K 	c #3968AB",
"L 	c #3865A6",
"M 	c #355E9D",
"N 	c #3762A2",
"O 	c #48608D",
"P 	c #8498BB",
"Q 	c #325690",
"R 	c #31548F",
"S 	c #334B7B",
"T 	c #C7D2E4",
"U 	c #2A4376",
"V 	c #3A69AD",
"W 	c #7C9ECD",
"X 	c #BDCCE2",
"Y 	c #C0CDE1",
"Z 	c #EBF0F7",
"` 	c #B2C1D9",
" .	c #2C497D",
"..	c #3A6AAE",
"+.	c #C5D1E4",
"@.	c #2A4476",
"#.	c #647FAC",
"$.	c #C9D4E6",
"%.	c #D6DFED",
"&.	c #BAC8DE",
"*.	c #758BB1",
"=.	c #2B4273",
"                                                ",
"                  . + + @ + #                   ",
"              + + + + + + + + + +               ",
"          $ + + + + + + + % & & * = =           ",
"        - + + + + + + ; > , ' ' ) ! ~ +         ",
"      . + + + + + + { ] ' ' ' ' ^ / ( _ +       ",
"    + + + + + + + + : ' ' < [ } | 1 2 3 =       ",
"    + + + + + + + + 4 ' 5 6 + + + 7 2 2 8 +     ",
"    + + + + + + + + 9 ' 0 + + + + a 2 2 b +     ",
"  @ + + + + + + + + c ' d + + + + e 2 2 f + #   ",
"  + + + + + + + + + c ' d + + + g h 2 i a + =   ",
"  + + + + j k l m m n ' o m p q r 2 2 s + + +   ",
"  + + g t u v ' ' ' ' ' ' ' ' w 2 2 x g + + +   ",
"  + = y 2 2 z A B C ' ' c B B D E b + + + + F   ",
"  + G 2 2 H I + + g J ' d + + + + + + + + + #   ",
"  + H 2 K g + + + + c ' d + + + + + + + + +     ",
"  + L 2 M + + + + + J ' d + + + + + + + + +     ",
"  + N 2 L + + + + O ' ' P + + + + + + + +       ",
"  + Q 2 2 R + + S T ' ) O + + + + + + + +       ",
"  + U V 2 W X Y Z ' ' ` + + + + + + + +         ",
"  + +  ...w ' ' ' ' +.; + + + + + + +           ",
"  - + + @.#.$.%.&.*.=.+ + + + + =               ",
"    + + + + + + + + + + + + F                   ",
"                                                "};
