/* XPM */
static char * linux_xpm[] = {
"20 20 154 2",
"  	c None",
". 	c #294071",
"+ 	c #294171",
"@ 	c #294172",
"# 	c #294072",
"$ 	c #284171",
"% 	c #284172",
"& 	c #284071",
"* 	c #334A7A",
"= 	c #384F7D",
"- 	c #334B7A",
"; 	c #2A4374",
"> 	c #284072",
", 	c #2D4576",
"' 	c #5E7197",
") 	c #ACBBD3",
"! 	c #D0DAEA",
"~ 	c #AEBED5",
"{ 	c #4F6896",
"] 	c #264074",
"^ 	c #243D6F",
"/ 	c #8697B5",
"( 	c #FFFFFF",
"_ 	c #F0F4F9",
": 	c #E9EFF8",
"< 	c #83A4D1",
"[ 	c #2D5594",
"} 	c #294476",
"| 	c #243C6E",
"1 	c #536A95",
"2 	c #FAFBFE",
"3 	c #FCFCFD",
"4 	c #96A5BE",
"5 	c #687CA2",
"6 	c #6078A3",
"7 	c #4770AE",
"8 	c #3B6FB6",
"9 	c #2F5088",
"0 	c #1E376A",
"a 	c #A0B1CC",
"b 	c #BDC9DD",
"c 	c #233D6F",
"d 	c #21396C",
"e 	c #233B6D",
"f 	c #2F528C",
"g 	c #3C6EB4",
"h 	c #355E9D",
"i 	c #2A4375",
"j 	c #1D3669",
"k 	c #B6C3D8",
"l 	c #8DA0C1",
"m 	c #213A6C",
"n 	c #283F6F",
"o 	c #2E4E85",
"p 	c #3A6AAF",
"q 	c #3762A2",
"r 	c #2A4376",
"s 	c #2A4171",
"t 	c #273F70",
"u 	c #162F64",
"v 	c #B5C2D8",
"w 	c #869ABC",
"x 	c #1C3568",
"y 	c #243C6D",
"z 	c #325792",
"A 	c #3C70B7",
"B 	c #345B99",
"C 	c #294274",
"D 	c #284376",
"E 	c #39578D",
"F 	c #738AB2",
"G 	c #D7DFEC",
"H 	c #C3D0E3",
"I 	c #889CBD",
"J 	c #6F88B1",
"K 	c #335D9D",
"L 	c #3B6CB2",
"M 	c #2E4C81",
"N 	c #294173",
"O 	c #305189",
"P 	c #3466AF",
"Q 	c #84A4D1",
"R 	c #F6F8FB",
"S 	c #FFFFFE",
"T 	c #E9EFF7",
"U 	c #6D93C6",
"V 	c #3568B0",
"W 	c #31548E",
"X 	c #2E4D83",
"Y 	c #3C6FB6",
"Z 	c #386BB1",
"` 	c #5078B1",
" .	c #9DAFCD",
"..	c #B1BFD5",
"+.	c #EBEFF6",
"@.	c #D4DDEB",
"#.	c #97AAC9",
"$.	c #3C5E99",
"%.	c #2A467C",
"&.	c #283F70",
"*.	c #2A4071",
"=.	c #3763A2",
"-.	c #335894",
";.	c #253D6E",
">.	c #1E3769",
",.	c #102A60",
"'.	c #B3C1D6",
").	c #8398BB",
"!.	c #173064",
"~.	c #1F386A",
"{.	c #273E6E",
"].	c #284070",
"^.	c #294273",
"/.	c #3B6CB1",
"(.	c #3967AB",
"_.	c #2B487D",
":.	c #1B3467",
"<.	c #BAC6DA",
"[.	c #889CBE",
"}.	c #3A6AAE",
"|.	c #3A6AAD",
"1.	c #2C4C82",
"2.	c #233A6B",
"3.	c #21396B",
"4.	c #243E71",
"5.	c #D6DCE8",
"6.	c #7188AE",
"7.	c #345B97",
"8.	c #3B6FB7",
"9.	c #3C67A5",
"0.	c #4A6695",
"a.	c #566F99",
"b.	c #A0AFC8",
"c.	c #FAFAFB",
"d.	c #F7FAFE",
"e.	c #38507E",
"f.	c #273F71",
"g.	c #2B477A",
"h.	c #3A67AA",
"i.	c #8AAAD5",
"j.	c #EBEEF4",
"k.	c #E5EAF1",
"l.	c #788CAE",
"m.	c #263D6F",
"n.	c #29457A",
"o.	c #6A86B0",
"p.	c #E4ECF6",
"q.	c #F5F9FE",
"r.	c #CDD8E9",
"s.	c #60759D",
"t.	c #2D4575",
"u.	c #2A4273",
"v.	c #2E4575",
"w.	c #2F4676",
"                                        ",
"              . + @ . . .               ",
"          # $ % % & & * = - ;           ",
"        + > # @ & , ' ) ! ~ { ]         ",
"      > . $ @ & ^ / ( ( _ : < [ }       ",
"    % . % @ @ | 1 2 3 4 5 6 7 8 9 %     ",
"    + % @ @ @ 0 a ( b c d e f g h i     ",
"  . % @ @ @ @ j k ( l m @ n o p q r s   ",
"  % @ @ & t | u v ( w x y n z A B C #   ",
"  @ & & D E F w G ( H I J K L g M & >   ",
"  & N O P Q R ( ( S ( ( T U V W N & @   ",
"  @ X Y Z `  ...+.( @...#.$.%.&.& % *.  ",
"  N =.g -.;.>.,.'.( ).!.~.{.].$ @ & @   ",
"  ^./.(._.&.@ :.<.( [.e @ @ @ @ & #     ",
"  ^.}.|.1.2.3.4.5.( 6.| @ @ @ $ # >     ",
"  @ 7.8.9.0.a.b.c.d.e.f.@ @ & # +       ",
"  @ g.h.i.j.k.( ( l.m.@ & % # $         ",
"  $ & n.o.p.q.r.s.t.& + $ + >           ",
"    + > u.v.w.t.@ & @ @ #               ",
"                                        "};
