/* XPM */
static char *taskbuttonactive24_xpm[] = {
"1 24 21 1",
" 	c None",
"B	c #C0BDBA",
"C	c #D1CFCC",
"D	c #D6D3D1",
"E	c #D6D4D2",
"F	c #D5D3D1",
"G	c #D4D2D0",
"H	c #D3D1CF",
"I	c #D2D0CE",
"J	c #D0CECC",
"K	c #CFCDCB",
"L	c #CAC8C5",
"M	c #C9C7C4",
"N	c #C8C6C3",
"O	c #C7C4C1",
"P	c #C6C3C0",
"Q	c #C4C2BF",
"R	c #C3C1BE",
"S	c #C2C0BD",
"T	c #C1BEBB",
"U	c #C0BDBA",
"J",
"C",
"D",
"E",
"F",
"G",
"H",
"I",
"J",
"K",
"L",
"M",
"N",
"O",
"P",
"Q",
"R",
"S",
"T",
"U",
"B",
"B",
"B",
"B"
};
