/* XPM */
static char * taskbuttonbg_xpm[] = {
"1 20 14 1",
" 	c None",
".	c #BCBCBC",
"+	c #BBBBBB",
"@	c #BABABA",
"#	c #B5B5B5",
"$	c #B4B4B3",
"%	c #B3B3B2",
"&	c #B2B2B1",
"*	c #B1B1B0",
"=	c #B0AFAF",
"-	c #AFAFAE",
";	c #AEADAC",
">	c #ADACAC",
",	c #ACABAA",
".",
".",
".",
"+",
"+",
"+",
"+",
"+",
"@",
"@",
"#",
"$",
"%",
"&",
"*",
"=",
"-",
";",
">",
","};
