/* XPM */
static char *taskbuttonbg24_xpm[] = {
"1 24 14 1",
" 	c None",
"1	c #BCBCBC",
"2	c #BBBBBB",
"3	c #BABABA",
"4	c #B5B5B5",
"5	c #B4B4B3",
"6	c #B3B3B2",
"7	c #B2B2B1",
"8	c #B1B1B0",
"9	c #B0AFAF",
"A	c #AFAFAE",
"B	c #AEADAC",
"C	c #ADACAC",
"D	c #ACABAA",
"1",
"1",
"1",
"2",
"2",
"2",
"2",
"2",
"3",
"3",
"4",
"5",
"6",
"7",
"8",
"9",
"A",
"B",
"C",
"D",
"D",
"D",
"D",
"D"
};
