/* XPM */
static char * maximizeO_xpm[] = {
"19 38 53 1",
" 	c None",
".	c #89A8C9",
"+	c #7299C2",
"@	c #6F96C0",
"#	c #86A6C9",
"$	c #7097C1",
"%	c #5A88B9",
"&	c #2F5884",
"*	c #5786B8",
"=	c #84A5C9",
"-	c #A1BAD3",
";	c #83A4C8",
">	c #6992BE",
",	c #749AC2",
"'	c #9EB8D2",
")	c #7C9FC6",
"!	c #81A3C8",
"~	c #6A93BF",
"{	c #8DABCB",
"]	c #9DB7D1",
"^	c #37679A",
"/	c #8CAACA",
"(	c #80A2C7",
"_	c #6C94BF",
":	c #9BB5D0",
"<	c #CDD8E3",
"[	c #7EA1C7",
"}	c #98B3CF",
"|	c #7B9EC5",
"1	c #96B1CF",
"2	c #789CC4",
"3	c #779CC3",
"4	c #6D95C0",
"5	c #7EA0C6",
"6	c #4177B0",
"7	c #6791BE",
"8	c #6690BD",
"9	c #648FBC",
"0	c #638EBC",
"a	c #2B5179",
"b	c #5887B9",
"c	c #A7BDD5",
"d	c #4C7EB4",
"e	c #9CB6D1",
"f	c #628DBB",
"g	c #93AFCE",
"h	c #608CBA",
"i	c #8FACCC",
"j	c #5E8BBA",
"k	c #8AA9CA",
"l	c #5D8ABA",
"m	c #5B89BA",
"n	c #759BC3",
"..+@@@@@@@@@@@+....",
"#$%&&&&&&&&&&&%$###",
"@*&=---------=&*@;;",
">&,''''''''''')&>!!",
"~&{]^^^^^^^^^]/&~((",
"_&{:^<<<<<<<^:/&_[[",
"@&{}^<<<<<<<^}/&@||",
"$&{1^<^^^^^<^1/&$22",
"+&{/^<^///^<^//&+++",
",&{.^<^...^<^./&,$$",
"3&{=^<^^^^^<^=/&3@@",
"2&{;^<<<<<<<^;/&244",
"|&{[^^^^^^^^^[/&|__",
"5&,55555555555)&5>>",
"+2&$|||||||||$62+77",
"8+2&&&&&&&&&&&2+888",
"995;;;;;;;;;;;59999",
"0000000000000000000",
"^^^^^^^^^^^^^^^^^^^",
"...................",
"###aaaaaaaaaaa#####",
";;abbbbbbbbbbbac;;;",
"!ad888888888888ac!!",
"(ad9^^^^^^^^^99a-((",
"[ad0^<<<<<<<^00ae[[",
"|adf^<<<<<<<^ffa1||",
"2adf^<^^^^^<^ffag22",
"+adh^<^hhh^<^hhai++",
"$adj^<^jjj^<^jjak$$",
"@adl^<^^^^^<^lla#@@",
"4adm^<<<<<<<^mma!44",
"_adm^^^^^^^^^mma|__",
">ad%%%%%%%%%%%%a3>>",
"77abbbbbbbbbbaan777",
"88+aaaaaaaaaaa+8888",
"999+++++++++++99999",
"0000000000000000000",
"^^^^^^^^^^^^^^^^^^^"};
