/* XPM */
static char * menuButtonA_xpm[] = {
"19 38 20 1",
" 	c None",
".	c #89A8C9",
"+	c #86A6C9",
"@	c #83A4C8",
"#	c #81A3C8",
"$	c #80A2C7",
"%	c #7EA1C7",
"&	c #7B9EC5",
"*	c #789CC4",
"=	c #7299C2",
"-	c #7097C1",
";	c #6F96C0",
">	c #6D95C0",
",	c #6C94BF",
"'	c #6992BE",
")	c #6791BE",
"!	c #6690BD",
"~	c #648FBC",
"{	c #638EBC",
"]	c #37679A",
"...................",
"+++++++++++++++++++",
"@@@@@@@@@@@@@@@@@@@",
"###################",
"$$$$$$$$$$$$$$$$$$$",
"%%%%%%%%%%%%%%%%%%%",
"&&&&&&&&&&&&&&&&&&&",
"*******************",
"===================",
"-------------------",
";;;;;;;;;;;;;;;;;;;",
">>>>>>>>>>>>>>>>>>>",
",,,,,,,,,,,,,,,,,,,",
"'''''''''''''''''''",
")))))))))))))))))))",
"!!!!!!!!!!!!!!!!!!!",
"~~~~~~~~~~~~~~~~~~~",
"{{{{{{{{{{{{{{{{{{{",
"]]]]]]]]]]]]]]]]]]]",
"...................",
"+++++++++++++++++++",
"@@@@@@@@@@@@@@@@@@@",
"###################",
"$$$$$$$$$$$$$$$$$$$",
"%%%%%%%%%%%%%%%%%%%",
"&&&&&&&&&&&&&&&&&&&",
"*******************",
"===================",
"-------------------",
";;;;;;;;;;;;;;;;;;;",
">>>>>>>>>>>>>>>>>>>",
",,,,,,,,,,,,,,,,,,,",
"'''''''''''''''''''",
")))))))))))))))))))",
"!!!!!!!!!!!!!!!!!!!",
"~~~~~~~~~~~~~~~~~~~",
"{{{{{{{{{{{{{{{{{{{",
"]]]]]]]]]]]]]]]]]]]"};
