/* XPM */
static char * menusel_xpm[] = {
"1 20 16 1",
" 	c None",
".	c #92AECD",
"+	c #8FACCC",
"@	c #8DABCB",
"#	c #8CAACA",
"$	c #89A8C9",
"%	c #87A7C9",
"&	c #86A6C9",
"*	c #7EA1C7",
"=	c #7C9FC6",
"-	c #7B9EC5",
";	c #789CC4",
">	c #759BC3",
",	c #749AC2",
"'	c #7299C2",
")	c #7198C1",
".",
".",
".",
"+",
"@",
"@",
"#",
"$",
"%",
"&",
"*",
"=",
"-",
";",
";",
">",
",",
"'",
")",
")"};
