/* XPM */
static char * minimizeO_xpm[] = {
"19 38 54 1",
" 	c None",
".	c #89A8C9",
"+	c #7299C2",
"@	c #6F96C0",
"#	c #86A6C9",
"$	c #7097C1",
"%	c #5A88B9",
"&	c #2F5884",
"*	c #5786B8",
"=	c #84A5C9",
"-	c #A1BAD3",
";	c #83A4C8",
">	c #6992BE",
",	c #749AC2",
"'	c #9EB8D2",
")	c #7C9FC6",
"!	c #81A3C8",
"~	c #6A93BF",
"{	c #8DABCB",
"]	c #9DB7D1",
"^	c #8CAACA",
"/	c #80A2C7",
"(	c #6C94BF",
"_	c #9BB5D0",
":	c #7EA1C7",
"<	c #98B3CF",
"[	c #7B9EC5",
"}	c #96B1CF",
"|	c #789CC4",
"1	c #37679A",
"2	c #779CC3",
"3	c #CDD8E3",
"4	c #6D95C0",
"5	c #7EA0C6",
"6	c #4177B0",
"7	c #6791BE",
"8	c #6690BD",
"9	c #648FBC",
"0	c #638EBC",
"a	c #356496",
"b	c #2B5179",
"c	c #5887B9",
"d	c #A7BDD5",
"e	c #4C7EB4",
"f	c #9CB6D1",
"g	c #628DBB",
"h	c #93AFCE",
"i	c #608CBA",
"j	c #8FACCC",
"k	c #5E8BBA",
"l	c #8AA9CA",
"m	c #5D8ABA",
"n	c #5B89BA",
"o	c #759BC3",
"..+@@@@@@@@@@@+....",
"#$%&&&&&&&&&&&%$###",
"@*&=---------=&*@;;",
">&,''''''''''')&>!!",
"~&{]]]]]]]]]]]^&~//",
"(&{___________^&(::",
"@&{<<<<<<<<<<<^&@[[",
"$&{}}}}}}}}}}}^&$||",
"+&{^^^^^^^^^^^^&+++",
",&{.111111111.^&,$$",
"2&{=133333331=^&2@@",
"|&{;133333331;^&|44",
"[&{:111111111:^&[((",
"5&,55555555555)&5>>",
"+|&$[[[[[[[[[$6|+77",
"8+|&&&&&&&&&&&|+888",
"995;;;;;;;;;;;59999",
"0000000000000000000",
"11111111111111a1111",
"...................",
"###bbbbbbbbbbb#####",
";;bcccccccccccbd;;;",
"!be888888888888bd!!",
"/be999999999999b-//",
":be000000000000bf::",
"[beggggggggggggb}[[",
"|beggggggggggggbh||",
"+beiiiiiiiiiiiibj++",
"$bek111111111kkbl$$",
"@bem133333331mmb#@@",
"4ben133333331nnb!44",
"(ben111111111nnb[((",
">be%%%%%%%%%%%%b2>>",
"77bccccccccccbbo777",
"88+bbbbbbbbbbb+8888",
"999+++++++++++99999",
"0000000000000000000",
"1111111111111111111"};
