/* XPM */
static char * minimizeA_xpm[] = {
"19 38 48 1",
" 	c None",
".	c #89A8C9",
"+	c #7299C2",
"@	c #6F96C0",
"#	c #86A6C9",
"$	c #7097C1",
"%	c #5A88B9",
"&	c #2F5884",
"*	c #5786B8",
"=	c #84A5C9",
"-	c #A1BAD3",
";	c #83A4C8",
">	c #6992BE",
",	c #749AC2",
"'	c #8DABCB",
")	c #608CBA",
"!	c #81A3C8",
"~	c #6A93BF",
"{	c #80A2C7",
"]	c #6C94BF",
"^	c #87A7C9",
"/	c #7EA1C7",
"(	c #7B9EC5",
"_	c #789CC4",
":	c #37679A",
"<	c #779CC3",
"[	c #CDD8E3",
"}	c #6D95C0",
"|	c #648FBC",
"1	c #7EA0C6",
"2	c #628DBB",
"3	c #5081B6",
"4	c #5E8BBA",
"5	c #6791BE",
"6	c #6690BD",
"7	c #638EBC",
"8	c #2B5179",
"9	c #5887B9",
"0	c #A7BDD5",
"a	c #4C7EB4",
"b	c #9CB6D1",
"c	c #96B1CF",
"d	c #93AFCE",
"e	c #8FACCC",
"f	c #8AA9CA",
"g	c #5D8ABA",
"h	c #5B89BA",
"i	c #759BC3",
"..+@@@@@@@@@@@+....",
"#$%&&&&&&&&&&&%$###",
"@*&=---------=&*@;;",
">&,''''''''''')&>!!",
"~&'...........+&~{{",
"]&'^^^^^^^^^^^+&]//",
"@&';;;;;;;;;;;+&@((",
"$&'!!!!!!!!!!!+&$__",
"+&'++++++++++++&+++",
",&'@:::::::::@+&,$$",
"<&']:[[[[[[[:]+&<@@",
"_&'>:[[[[[[[:>+&_}}",
"(&'|:::::::::|+&(]]",
"1&,22222222222)&1>>",
"+_&34444444443&_+55",
"6+_&&&&&&&&&&&_+666",
"||1;;;;;;;;;;;1||||",
"7777777777777777777",
":::::::::::::::::::",
"...................",
"###88888888888#####",
";;89999999999980;;;",
"!8a66666666666680!!",
"{8a||||||||||||8-{{",
"/8a7777777777778b//",
"(8a2222222222228c((",
"_8a2222222222228d__",
"+8a))))))))))))8e++",
"$8a4:::::::::448f$$",
"@8ag:[[[[[[[:gg8#@@",
"}8ah:[[[[[[[:hh8!}}",
"]8ah:::::::::hh8(]]",
">8a%%%%%%%%%%%%8<>>",
"558999999999988i555",
"66+88888888888+6666",
"|||+++++++++++|||||",
"7777777777777777777",
":::::::::::::::::::"};
