/* XPM */
static char * restoreA_xpm[] = {
"19 38 47 1",
" 	c None",
".	c #86A6C9",
"+	c #7299C2",
"@	c #6F96C0",
"#	c #83A4C8",
"$	c #7097C1",
"%	c #5A88B9",
"&	c #2F5884",
"*	c #5786B8",
"=	c #84A5C9",
"-	c #A1BAD3",
";	c #6992BE",
">	c #749AC2",
",	c #8DABCB",
"'	c #608CBA",
")	c #81A3C8",
"!	c #6A93BF",
"~	c #89A8C9",
"{	c #7EA1C7",
"]	c #6C94BF",
"^	c #87A7C9",
"/	c #37679A",
"(	c #7EA0C6",
"_	c #CDD8E3",
":	c #7B9EC5",
"<	c #789CC4",
"[	c #779CC3",
"}	c #6D95C0",
"|	c #648FBC",
"1	c #628DBB",
"2	c #5081B6",
"3	c #5E8BBA",
"4	c #6791BE",
"5	c #6690BD",
"6	c #638EBC",
"7	c #2B5179",
"8	c #5887B9",
"9	c #A7BDD5",
"0	c #4C7EB4",
"a	c #9CB6D1",
"b	c #96B1CF",
"c	c #93AFCE",
"d	c #8FACCC",
"e	c #8AA9CA",
"f	c #5D8ABA",
"g	c #5B89BA",
"h	c #759BC3",
"..+@@@@@@@@@@@+....",
"#$%&&&&&&&&&&&%$###",
"@*&=---------=&*@##",
";&>,,,,,,,,,,,'&;))",
"!&,~~~~~~~~~~~+&!{{",
"]&,^^///////^^+&]((",
"@&,##/_____/##+&@::",
"$&,))/_____/))+&$<<",
"+&,++/_///_/+++&+++",
">&,@@/_///_/@@+&>$$",
"[&,]]/_____/]]+&[@@",
"<&,;;///////;;+&<}}",
":&,|||||||||||+&:]]",
"(&>11111111111'&(;;",
"+<&23333333332&<+44",
"5+<&&&&&&&&&&&<+555",
"||(###########(||||",
"6666666666666666666",
"///////////////////",
"...................",
"###77777777777#####",
"##78888888888879###",
")7055555555555579))",
"{70||||||||||||7-{{",
"(7066///////6667a((",
":7011/_____/1117b::",
"<7011/_____/1117c<<",
"+70''/_///_/'''7d++",
"$7033/_///_/3337e$$",
"@70ff/_____/fff7.@@",
"}70gg///////ggg7)}}",
"]70gggggggggggg7:]]",
";70%%%%%%%%%%%%7[;;",
"447888888888877h444",
"55+77777777777+5555",
"|||+++++++++++|||||",
"6666666666666666666",
"///////////////////"};
