/* XPM */
static char * restoreO_xpm[] = {
"19 38 52 1",
" 	c None",
".	c #86A6C9",
"+	c #7299C2",
"@	c #6F96C0",
"#	c #83A4C8",
"$	c #7097C1",
"%	c #5A88B9",
"&	c #2F5884",
"*	c #5786B8",
"=	c #84A5C9",
"-	c #A1BAD3",
";	c #6992BE",
">	c #749AC2",
",	c #9EB8D2",
"'	c #7C9FC6",
")	c #81A3C8",
"!	c #6A93BF",
"~	c #8DABCB",
"{	c #9DB7D1",
"]	c #8CAACA",
"^	c #7EA1C7",
"/	c #6C94BF",
"(	c #9BB5D0",
"_	c #37679A",
":	c #7EA0C6",
"<	c #98B3CF",
"[	c #CDD8E3",
"}	c #7B9EC5",
"|	c #96B1CF",
"1	c #789CC4",
"2	c #89A8C9",
"3	c #779CC3",
"4	c #6D95C0",
"5	c #4177B0",
"6	c #6791BE",
"7	c #6690BD",
"8	c #648FBC",
"9	c #638EBC",
"0	c #2B5179",
"a	c #5887B9",
"b	c #A7BDD5",
"c	c #4C7EB4",
"d	c #9CB6D1",
"e	c #628DBB",
"f	c #93AFCE",
"g	c #608CBA",
"h	c #8FACCC",
"i	c #5E8BBA",
"j	c #8AA9CA",
"k	c #5D8ABA",
"l	c #5B89BA",
"m	c #759BC3",
"..+@@@@@@@@@@@+....",
"#$%&&&&&&&&&&&%$###",
"@*&=---------=&*@##",
";&>,,,,,,,,,,,'&;))",
"!&~{{{{{{{{{{{]&!^^",
"/&~((_______((]&/::",
"@&~<<_[[[[[_<<]&@}}",
"$&~||_[[[[[_||]&$11",
"+&~]]_[___[_]]]&+++",
">&~22_[___[_22]&>$$",
"3&~==_[[[[[_==]&3@@",
"1&~##_______##]&144",
"}&~^^^^^^^^^^^]&}//",
":&>:::::::::::'&:;;",
"+1&$}}}}}}}}}$51+66",
"7+1&&&&&&&&&&&1+777",
"88:###########:8888",
"9999999999999999999",
"___________________",
"...................",
"###00000000000#####",
"##0aaaaaaaaaaa0b###",
")0c7777777777770b))",
"^0c8888888888880-^^",
":0c99_______9990d::",
"}0cee_[[[[[_eee0|}}",
"10cee_[[[[[_eee0f11",
"+0cgg_[___[_ggg0h++",
"$0cii_[___[_iii0j$$",
"@0ckk_[[[[[_kkk0.@@",
"40cll_______lll0)44",
"/0cllllllllllll0}//",
";0c%%%%%%%%%%%%03;;",
"660aaaaaaaaaa00m666",
"77+00000000000+7777",
"888+++++++++++88888",
"9999999999999999999",
"___________________"};
