/* XPM */
static char * bleachbit_xpm[] = {
"32 32 396 2",
"  	c None",
". 	c #8A5400",
"+ 	c #94600D",
"@ 	c #874E00",
"# 	c #C09348",
"$ 	c #C89F5C",
"% 	c #BA8C43",
"& 	c #9E6B1A",
"* 	c #C39956",
"= 	c #E1D6C3",
"- 	c #AF7315",
"; 	c #A26F1F",
"> 	c #925E08",
", 	c #D0A45C",
"' 	c #945600",
") 	c #C18017",
"! 	c #AE7B29",
"~ 	c #AC7C2D",
"{ 	c #C4831B",
"] 	c #C07C0E",
"^ 	c #D39F4B",
"/ 	c #935E0A",
"( 	c #C99543",
"_ 	c #BF7A0A",
": 	c #C58721",
"< 	c #B07D29",
"[ 	c #A57220",
"} 	c #C78A2B",
"| 	c #B67409",
"1 	c #B47C21",
"2 	c #615138",
"3 	c #EAECF1",
"4 	c #DED9C0",
"5 	c #E6E6E8",
"6 	c #E5E5E5",
"7 	c #E4E4E4",
"8 	c #E2E2E2",
"9 	c #E1E1E1",
"0 	c #E0E0E0",
"a 	c #DEDEDE",
"b 	c #DDDDDD",
"c 	c #737373",
"d 	c #885200",
"e 	c #B37E29",
"f 	c #B17410",
"g 	c #AA7011",
"h 	c #AB833F",
"i 	c #E1D285",
"j 	c #C6A300",
"k 	c #DCD9D0",
"l 	c #DFDFE0",
"m 	c #DCDCDC",
"n 	c #DBDBDB",
"o 	c #DADADA",
"p 	c #D9D9D9",
"q 	c #D8D8D8",
"r 	c #D6D6D6",
"s 	c #D5D5D5",
"t 	c #D7D7D7",
"u 	c #AEAEAE",
"v 	c #915B04",
"w 	c #A86F15",
"x 	c #A87205",
"y 	c #C7A414",
"z 	c #F8EB8F",
"A 	c #E2CA4A",
"B 	c #E2E1CE",
"C 	c #E3E4E5",
"D 	c #DFDFDF",
"E 	c #F7F7F7",
"F 	c #474747",
"G 	c #B18406",
"H 	c #DFC740",
"I 	c #FEF291",
"J 	c #FFF382",
"K 	c #DDC461",
"L 	c #92473A",
"M 	c #CFBCBC",
"N 	c #E6E6E6",
"O 	c #E3E3E3",
"P 	c #C9A80C",
"Q 	c #EAD755",
"R 	c #FBEB6A",
"S 	c #FFF777",
"T 	c #BD8E47",
"U 	c #981B1A",
"V 	c #C71C1C",
"W 	c #861A1B",
"X 	c #F2FDFF",
"Y 	c #C6C6C6",
"Z 	c #C19C00",
"` 	c #DBC52F",
" .	c #E9D62F",
"..	c #E2C643",
"+.	c #953E1E",
"@.	c #B91F28",
"#.	c #FA504F",
"$.	c #C02022",
"%.	c #7F1603",
"&.	c #E2E0A8",
"*.	c #E0E0E2",
"=.	c #595959",
"-.	c #A06415",
";.	c #8A0D04",
">.	c #D52122",
",.	c #F24443",
"'.	c #9B171B",
").	c #AA6D3F",
"!.	c #F5E469",
"~.	c #E3CE56",
"{.	c #CFB857",
"].	c #E5E7EF",
"^.	c #7D7D7D",
"/.	c #9B0000",
"(.	c #CB0101",
"_.	c #BE1012",
":.	c #8E2820",
"<.	c #DABB73",
"[.	c #FFF765",
"}.	c #FAE232",
"|.	c #EFDB37",
"1.	c #E1CC49",
"2.	c #CDB545",
"3.	c #E2E3E2",
"4.	c #BDBDBD",
"5.	c #980000",
"6.	c #900000",
"7.	c #B37745",
"8.	c #F7E768",
"9.	c #FBEB6D",
"0.	c #F8E55C",
"a.	c #F9E23E",
"b.	c #F1D926",
"c.	c #E2CB19",
"d.	c #E2D059",
"e.	c #CDB64C",
"f.	c #E2E5F0",
"g.	c #4E4E4E",
"h.	c #A27C7E",
"i.	c #B7965C",
"j.	c #FAEA5B",
"k.	c #FBE443",
"l.	c #F9E55C",
"m.	c #F0D94B",
"n.	c #F7E242",
"o.	c #EED526",
"p.	c #E1C715",
"q.	c #DBC411",
"r.	c #E2D062",
"s.	c #CDB650",
"t.	c #DEDFE0",
"u.	c #949494",
"v.	c #E8EAED",
"w.	c #D4C889",
"x.	c #F0DB50",
"y.	c #FAE335",
"z.	c #F1D83E",
"A.	c #F8E552",
"B.	c #F3DB3B",
"C.	c #EFD629",
"D.	c #E8D11C",
"E.	c #D8BE15",
"F.	c #DCC615",
"G.	c #E6D77D",
"H.	c #CFBD6B",
"I.	c #DFE1EB",
"J.	c #D3D3D3",
"K.	c #D2D2D2",
"L.	c #CBCBCB",
"M.	c #B9B9B9",
"N.	c #DEDFE1",
"O.	c #D2C68D",
"P.	c #EAD74F",
"Q.	c #F1D925",
"R.	c #F4DC34",
"S.	c #F8E143",
"T.	c #DDC020",
"U.	c #F4DB2E",
"V.	c #E0C514",
"W.	c #E0C817",
"X.	c #D1B50C",
"Y.	c #DFCB29",
"Z.	c #E1CD62",
"`.	c #CDB95D",
" +	c #DDDDDF",
".+	c #E9E9E9",
"++	c #D4D4D4",
"@+	c #606060",
"#+	c #494949",
"$+	c #EDEDED",
"%+	c #E1E2E3",
"&+	c #DDD3A4",
"*+	c #E4D250",
"=+	c #E7CD16",
"-+	c #F5DD2E",
";+	c #E9CE27",
">+	c #FBE439",
",+	c #D7B911",
"'+	c #E0C523",
")+	c #DBC208",
"!+	c #E1CC33",
"~+	c #D0B30C",
"{+	c #E4D248",
"]+	c #E6D77C",
"^+	c #CCB64F",
"/+	c #E8E8EC",
"(+	c #EFEFF0",
"_+	c #E8E8E8",
":+	c #747474",
"<+	c #6F6F6F",
"[+	c #F0F0F0",
"}+	c #DDD7BB",
"|+	c #DDC94C",
"1+	c #DFC608",
"2+	c #EED623",
"3+	c #DEC319",
"4+	c #F8E131",
"5+	c #DEC11D",
"6+	c #EAD533",
"7+	c #CEAF0A",
"8+	c #D9BF00",
"9+	c #E3D048",
"0+	c #CBAC05",
"a+	c #E3D149",
"b+	c #E9DB82",
"c+	c #CBAE2B",
"d+	c #D5D0BA",
"e+	c #B6B6B6",
"f+	c #7C7C7C",
"g+	c #FAFAFA",
"h+	c #EBEBEB",
"i+	c #E6E3D9",
"j+	c #D7C048",
"k+	c #DCC617",
"l+	c #E4CC14",
"m+	c #E2C71B",
"n+	c #EBD221",
"o+	c #ECD539",
"p+	c #D6B90A",
"q+	c #E2CD3F",
"r+	c #D2B602",
"s+	c #DDC512",
"t+	c #E3D14C",
"u+	c #CDAF0F",
"v+	c #DFCB41",
"w+	c #EEE496",
"x+	c #CEB129",
"y+	c #EDEEF2",
"z+	c #ECECEC",
"A+	c #EEEEEE",
"B+	c #A7A7A7",
"C+	c #CFCFCF",
"D+	c #B0B0B0",
"E+	c #A9AAAE",
"F+	c #C2A831",
"G+	c #E6D65C",
"H+	c #D7BD07",
"I+	c #E3CD21",
"J+	c #E3C919",
"K+	c #EDD833",
"L+	c #D1B423",
"M+	c #E2CC1C",
"N+	c #CBAC17",
"O+	c #D7BF00",
"P+	c #E1CD36",
"Q+	c #E6D558",
"R+	c #CDAD19",
"S+	c #CBB032",
"T+	c #9C9A8E",
"U+	c #9D9D9E",
"V+	c #A1A1A1",
"W+	c #A2A2A2",
"X+	c #A0A0A0",
"Y+	c #9F9F9F",
"Z+	c #9E9E9E",
"`+	c #767676",
" @	c #C5C5C5",
".@	c #A5A5A5",
"+@	c #9A9A9D",
"@@	c #A08F48",
"#@	c #E5D35A",
"$@	c #D0B20D",
"%@	c #DEC712",
"&@	c #D0B113",
"*@	c #E9D41E",
"=@	c #E8D655",
"-@	c #C8A801",
";@	c #E4D24B",
">@	c #C8A700",
",@	c #DCC71B",
"'@	c #EBDD7A",
")@	c #C2A726",
"!@	c #96917D",
"~@	c #969697",
"{@	c #939393",
"]@	c #959595",
"^@	c #A6A6A6",
"/@	c #A9A9A9",
"(@	c #9D9D9D",
"_@	c #BEBEBE",
":@	c #898A8A",
"<@	c #6C6C6B",
"[@	c #D0B015",
"}@	c #DCC53C",
"|@	c #D3B826",
"1@	c #D5B803",
"2@	c #E7D74D",
"3@	c #D7BE2C",
"4@	c #E0CB3B",
"5@	c #E1CF51",
"6@	c #D7BF3B",
"7@	c #B49712",
"8@	c #7F7E7A",
"9@	c #919190",
"0@	c #979797",
"a@	c #8A8A8A",
"b@	c #B4B4B4",
"c@	c #9A9A9A",
"d@	c #A3A3A3",
"e@	c #929292",
"f@	c #707070",
"g@	c #BBBBBB",
"h@	c #9C9C9C",
"i@	c #898989",
"j@	c #65666C",
"k@	c #928444",
"l@	c #ECDD76",
"m@	c #CAA900",
"n@	c #E5D449",
"o@	c #CDAF11",
"p@	c #DDC921",
"q@	c #E6D768",
"r@	c #D2B82A",
"s@	c #D7B92F",
"t@	c #918243",
"u@	c #777777",
"v@	c #79797A",
"w@	c #8D8D8D",
"x@	c #888888",
"y@	c #ABABAB",
"z@	c #B1B1B1",
"A@	c #A4A4A4",
"B@	c #919191",
"C@	c #717171",
"D@	c #BCBCBC",
"E@	c #818181",
"F@	c #7B7767",
"G@	c #CCB335",
"H@	c #DDC953",
"I@	c #DCC735",
"J@	c #E3D058",
"K@	c #D6BD3A",
"L@	c #D9C662",
"M@	c #B09418",
"N@	c #70706D",
"O@	c #727376",
"P@	c #797978",
"Q@	c #8E8E8E",
"R@	c #969696",
"S@	c #ACACAC",
"T@	c #B2B2B2",
"U@	c #8F8F8F",
"V@	c #C1C1C1",
"W@	c #9D9D9F",
"X@	c #A49968",
"Y@	c #D8B91D",
"Z@	c #D6B313",
"`@	c #C0A838",
" #	c #9B8C4C",
".#	c #817C63",
"+#	c #77787C",
"@#	c #7B7B7B",
"##	c #7E7E7E",
"$#	c #838383",
"%#	c #9B9B9B",
"&#	c #8C8C8C",
"*#	c #999999",
"=#	c #686868",
"-#	c #D0D0D0",
";#	c #ADADAD",
">#	c #999A9D",
",#	c #9A978B",
"'#	c #8E9099",
")#	c #8B8E97",
"!#	c #8C8C8F",
"~#	c #8E8E8D",
"{#	c #6E6E6E",
"]#	c #6B6B6B",
"^#	c #69696A",
"/#	c #676767",
"(#	c #666666",
"_#	c #656565",
":#	c #646464",
"<#	c #6A6A6A",
"[#	c #6C6C6C",
"}#	c #4F4F4F",
"                                                                ",
"    . + @                                                       ",
"  . # $ %                                                       ",
"  & * = - ;                                                     ",
"  > , ' ) !                                                     ",
"    ~ { ] ^ .                                                   ",
"    / ( _ : <                                                   ",
"      [ } | 1 2 3 4 5 6 6 6 7 7 8 8 9 0 0 a a b b c             ",
"      d e f g h i j k l a b b m n o p q q r r s t u             ",
"        v w x y z A B C 9 0 0 0 D b m n n p p q q E F           ",
"          G H I J K L M N 6 O 9 0 D 9 9 9 b o t n 7 u           ",
"        P Q R S T U V W X O 9 D 9 O O 9 0 D a m q s Y           ",
"      Z `  ...+.@.#.$.%.&.*.D 8 7 O 8 9 D a b n o r r =.        ",
"          -.;.>.,.'.).!.~.{.].6 7 9 9 D b b m o n o a ^.        ",
"          /.(._.:.<.[.}.|.1.2.3.8 9 D a m m n n o p o 4.        ",
"          5.6.7.8.9.0.a.b.c.d.e.f.D a m m m m n n p a N g.      ",
"          h.i.j.k.l.m.n.o.p.q.r.s.t.m m b m m m o 8 o b u.      ",
"        c v.w.x.y.z.A.B.C.D.E.F.G.H.I.b b m m o 9 8 J.K.L.      ",
"        M.N.O.P.Q.R.S.T.U.V.W.X.Y.Z.`. +m m a .+N ++++K.K.@+    ",
"      #+$+%+&+*+=+-+;+>+,+'+)+!+~+{+]+^+/+(+_+n ++++p 6 t :+    ",
"      <+[+b }+|+1+2+3+4+5+6+7+8+9+0+a+b+c+d+s ++++J.r b s e+    ",
"      f+g+h+i+j+k+l+m+n+o+p+q+r+s+t+u+v+w+x+y+$+z+z+z+h+A+B+    ",
"      f+C+D+E+F+G+H+I+J+K+L+M+N+O+P+Q+R+S+T+U+V+W+X+Y+Z+V+u.    ",
"      `+ @.@+@@@#@$@%@&@*@=@-@;@>@,@'@)@!@~@{@]@^@/@(@X+V+{@    ",
"      c _@Y+:@<@[@}@H+|@1@2@3@4@5@6@7@8@9@0@a@a@u b@c@d@W+e@    ",
"      f@g@h@i@j@k@l@m@n@o@p@q@r@s@t@u@v@w@]@x@x@y@z@c@A@V+B@    ",
"      C@D@(@{@E@F@G@H@I@J@K@L@M@N@O@P@f+Q@R@i@i@S@T@c@A@V+U@    ",
"      :+V@W+V+W+W@X@Y@Z@`@ #.#+#@###E@$#]@%#w@&#D+b@*#d@V+U@    ",
"      =#-#b@;#^@Y+>#,#'#)#!#w@~#w@U@B@u.]@c@Z+V+V+X+W+V+d@$#    ",
"        C@u@:+C@{#]#^#/#(#_#:#:#_#_#/#=#<#[#[#[#[#[#]#<#<#}#    ",
"                                                                ",
"                                                                "};
