/* XPM */
static char *filezilla[] = {
/* columns rows colors chars-per-pixel */
"32 32 128 2 ",
"   c #8F0000",
".  c #900000",
"X  c #920000",
"o  c #940000",
"O  c #970000",
"+  c #990000",
"@  c #980101",
"#  c #9B0000",
"$  c #980202",
"%  c #9D0000",
"&  c #9F0000",
"*  c #950808",
"=  c #9A1313",
"-  c #A10000",
";  c #A30000",
":  c #A30101",
">  c #A50000",
",  c #A50101",
"<  c #A70000",
"1  c #AA0000",
"2  c #A80202",
"3  c #AC0000",
"4  c #AE0000",
"5  c #A40909",
"6  c #A00C0C",
"7  c #AE0C0C",
"8  c #B00000",
"9  c #B20000",
"0  c #B40000",
"q  c #B60000",
"w  c #B50202",
"e  c #B00707",
"r  c #B50404",
"t  c #B80000",
"y  c #BA0000",
"u  c #BD0000",
"i  c #BF0000",
"p  c #A81919",
"a  c #BD1818",
"s  c #AA2A2A",
"d  c #B52C2C",
"f  c #B42E2E",
"g  c #B33030",
"h  c #B23232",
"j  c #B13434",
"k  c #B03636",
"l  c #B03939",
"z  c #B83B3B",
"x  c #BD3F3F",
"c  c #C51F1F",
"v  c #C02F2F",
"b  c #BB4F4F",
"n  c #B75353",
"m  c #D15555",
"M  c #D45656",
"N  c #D15A5A",
"B  c #D65C5C",
"V  c #D65D5D",
"C  c #C16060",
"Z  c #C16161",
"A  c #CA6565",
"S  c #CF6565",
"D  c #C27171",
"F  c #C37272",
"G  c #C77070",
"H  c #C67171",
"J  c #CD7272",
"K  c #CB7777",
"L  c #CE7575",
"P  c #C77A7A",
"I  c #CF7F7F",
"U  c #D37B7B",
"Y  c #D37F7F",
"T  c #DA7F7F",
"R  c #CB8484",
"E  c #CF8585",
"W  c #CE8686",
"Q  c #CD8B8B",
"!  c #D38787",
"~  c #D98585",
"^  c #D68E8E",
"/  c #DF8B8B",
"(  c #DE8D8D",
")  c #D59797",
"_  c #D79797",
"`  c #DA9595",
"'  c #DF9B9B",
"]  c #DD9C9C",
"[  c #E19090",
"{  c #D7A1A1",
"}  c #DBA5A5",
"|  c #DEAFAF",
" . c #DFB5B5",
".. c #E1ABAB",
"X. c #E3B9B9",
"o. c #E4BBBB",
"O. c #E3BDBD",
"+. c #E4BEBE",
"@. c #EBBCBC",
"#. c #EDC1C1",
"$. c #EBC4C4",
"%. c #E8C7C7",
"&. c #ECC6C6",
"*. c #EBCDCD",
"=. c #EACFCF",
"-. c #ECCDCD",
";. c #F0C7C7",
":. c #EBD1D1",
">. c #F0D1D1",
",. c #F0DDDD",
"<. c #F4E1E1",
"1. c #F7E5E5",
"2. c #F7E9E9",
"3. c #F8EAEA",
"4. c #F8ECEC",
"5. c #F8EDED",
"6. c #F8EEEE",
"7. c #F9EFEF",
"8. c #F9F0F0",
"9. c #FBF0F0",
"0. c #FAF2F2",
"q. c #FBF2F2",
"w. c #FCF4F4",
"e. c #FDFAFA",
"r. c #FEFCFC",
"t. c #FFFEFE",
"y. c gray100",
"u. c None",
/* pixels */
"i i i i u.u.u.i i i i u.u.u.i i i i u.u.u.i i i i u.u.u.i i i i ",
"i i i i i i i i i i i i i i i i i i i i i i i i i i i i i i i i ",
"i i i i i i i i i i i i i i i i i i i i i i i i i i i i i i i i ",
"i i i i i i i i i i i i i i i i i i i i i i i i i i i i i i i i ",
"u.i i i i i i i i i i i i i i i i i i i i i i i i i i i i i i u.",
"u.i i i i i i i i V V V V V V V V V V V V N i i i i i i i i i u.",
"u.i i i i i i i c r.r.r.r.r.r.r.r.r.r.r.r.;.i i i t i i i i i u.",
"t i t t t t t t N r.r.r.r.r.r.r.r.r.r.r.r.[ t t t t t t t i t t ",
"t t t t q t t t / r.r.r.r.r.r.r.r.r.r.r.r.N t t t t t t t t t t ",
"q t q q q q q q #.r.r.r./ ~ ~ T ~ T ~ T ~ a q q q t q q q q q q ",
"q q q q q q q r w.r.r.w.q 8 q q q q q 8 q q q 8 q q q q q q q q ",
"u.q 8 8 8 q 8 v r.r.r.@.q 8 8 8 8 8 8 q 8 8 q 8 8 8 8 8 8 8 8 u.",
"u.8 8 8 8 8 8 S r.r.r.~ 8 8 8 8 8 8 8 8 8 8 8 8 8 8 8 8 8 8 8 u.",
"u.8 8 3 8 3 3 ' r.r.r.w.4.5.4.5.4.4.4.4.4.5.4.4.4.4.e 3 3 8 3 u.",
"3 3 3 3 3 3 3 >.r.r.r.r.r.r.r.r.r.r.r.r.r.r.r.r.r.&.3 3 3 3 3 3 ",
"1 3 3 1 1 1 7 r.r.r.r.r.r.r.r.r.r.r.r.r.r.r.r.r.r.U 1 1 1 1 1 3 ",
"2 2 2 2 2 1 b r.r.r.$.A A A A A A A A E r.r.r.r.] 2 2 2 2 2 2 - ",
"- 2 2 2 2 2 J r.r.r.J 2 2 2 - 2 2 2 d 1.r.r.r._ 2 2 2 2 - 2 - 2 ",
"u.2 - - - - ..r.r.r.z - - - 2 - 2 g 4.r.r.r.^ - - - 2 - - 2 - u.",
"u.- - - - - 1.r.r.r.5 - - - - - g 5.r.r.r.! - - - - % - - - - u.",
"u.- - % % p r.r.r.:.- % % - % j 5.r.r.r.E - % - % - % % % % - u.",
"% % % % % b r.r.r._ % % % % j 5.r.r.r.K % % % % % % % # % % % % ",
"# # % # # W r.r.r.Z % # % l 8.r.r.r.H # # # # 6 Z % # # # # # # ",
"# # # # # +.r.r.r.s # # l 8.r.r.r.8._ H W } %.r.*.# # O # O # # ",
"O O O O O | O.O.X.O O $ w.r.r.r.r.r.r.r.r.r.r.r.) O O O O O O O ",
"u.O o o o o o o o o o o P r.r.r.r.r.r.r.r.r.r.r.n o o o o o o u.",
"u.o o o   o o o o o   o * :.Q D W { O.,.:.X.D = o o o o   o o u.",
"u.o                   o         o     o       o           o   u.",
"  o                                                             ",
"                                                                ",
"                                                                ",
"        u.u.u.        u.u.u.        u.u.u.        u.u.u.        "
};
