/* XPM */
static char *fritzing_icon[] = {
/* columns rows colors chars-per-pixel */
"32 32 134 2 ",
"   c #280000",
".  c #471614",
"X  c #7C1E07",
"o  c #821F09",
"O  c #831F09",
"+  c #A22612",
"@  c #D11A08",
"#  c #D21E0D",
"$  c #D21F0D",
"%  c #D2200E",
"&  c #D32211",
"*  c #D32312",
"=  c #D32412",
"-  c #D32413",
";  c #D32514",
":  c #D32515",
">  c #D42615",
",  c #D42716",
"<  c #D42817",
"1  c #D42918",
"2  c #D42A19",
"3  c #D42A1A",
"4  c #D52B1B",
"5  c #D52C1B",
"6  c #D52C1C",
"7  c #D52D1C",
"8  c #D52D1D",
"9  c #D52E1E",
"0  c #D52F1E",
"q  c #D52F1F",
"w  c #D63020",
"e  c #D63120",
"r  c #D63121",
"t  c #D53222",
"y  c #D63222",
"u  c #D63223",
"i  c #D63323",
"p  c #D63324",
"a  c #D53424",
"s  c #D53525",
"d  c #D63424",
"f  c #D63425",
"g  c #D73525",
"h  c #D73526",
"j  c #D73626",
"k  c #D73727",
"l  c #DC3324",
"z  c #D73728",
"x  c #D73929",
"c  c #D7392A",
"v  c #D83D2E",
"b  c #D83E2F",
"n  c #D93F30",
"m  c #D94133",
"M  c #DA4536",
"N  c #DA4739",
"B  c #DA4839",
"V  c #DB493B",
"C  c #DB4A3C",
"Z  c #DB4B3D",
"A  c #82594E",
"S  c #DC5244",
"D  c #DD5A4D",
"F  c #DE5C50",
"G  c #DF6054",
"H  c #E26D62",
"J  c #E37065",
"K  c #E4756B",
"L  c #E4776D",
"P  c #E4786E",
"I  c #E47A6F",
"U  c #E57B71",
"Y  c #E57E74",
"T  c #A08077",
"R  c #A4857C",
"E  c #E68076",
"W  c #E7887E",
"Q  c #BDA59F",
"!  c #E78E85",
"~  c #E88B82",
"^  c #E88D84",
"/  c #E99289",
"(  c #E9938A",
")  c #EB9A92",
"_  c #EB9C95",
"`  c #EDA49D",
"'  c #EDA59E",
"]  c #C9B6B3",
"[  c #EDA7A1",
"{  c #EEACA5",
"}  c #EFAEA8",
"|  c #EFAFA9",
" . c #EFB0AA",
".. c #F0B2AC",
"X. c #F0B3AD",
"o. c #F0B4AE",
"O. c #F1BAB5",
"+. c #F0BCB7",
"@. c #F2BEB9",
"#. c #F2C0BB",
"$. c #F3C3BE",
"%. c #F1C4BF",
"&. c #F6D4D0",
"*. c #F7D5D1",
"=. c #F7D8D5",
"-. c #F7D9D6",
";. c #F9E2E0",
":. c #F9E3E0",
">. c #F9E3E1",
",. c #FAE5E3",
"<. c #FAE6E4",
"1. c #FAE7E5",
"2. c #FAE8E6",
"3. c #F2EBE9",
"4. c #F2EDEB",
"5. c #FBEAE8",
"6. c #FBEEEC",
"7. c #FCF0EF",
"8. c #FBF6F6",
"9. c #FDF5F4",
"0. c #FDF5F5",
"q. c #FDF6F5",
"w. c #FDF6F6",
"e. c #FEF9F9",
"r. c #FEFAF9",
"t. c #FEFAFA",
"y. c #FEFBFB",
"u. c #FEFCFB",
"i. c #FEFCFC",
"p. c #FFFDFC",
"a. c #FFFDFD",
"s. c #FFFEFE",
"d. c #FEFFFF",
"f. c #FFFFFF",
/* pixels */
"y y y y y y y y y y y y y y y y y y y y y y y y y y y y y y y y ",
"y y y y y y y y y y y y y y y y y p p y y y y y y y y y y y y y ",
"y y y y y y y y y y y y y y y p p p y y y p y y y y y y y y y y ",
"y y y y y y y y y y y y y y p , 6 p p p p , y y y y y y y y y y ",
"y y y y y y y y y y y y y y 1 E *.>.;.;.<.` y y y y y y y y y y ",
"y y y y y y y y y y y y p < _ f.f.f.f.f.f.y.Z 4 p y y y y y y y ",
"y y y y y y y y y y p p 1 G f.u.f.y.9.w.y.#.p y y y y y y y y y ",
"y y y y y y y y y y y p - ) f.f.$.N V V N 6 y y y y y y y y y y ",
"y y y y y y y y y y p p * | f.f.P @ y 6 6 p y y y y y y y y y y ",
"y y y y y y y y y y 6 y 6 X.f.f.Y 6 x 1 p y y y y y y y y y y y ",
"y y y y y y y y p 6 S *.2.w.f.f.7.<.5.( 4 p y y y y y y y y y y ",
"y y y y y y y y p * ( f.y.f.f.f.f.f.f.<.z y y y y y y y y y y y ",
"y y y y y y y y p 4 F 2.w.f.f.f.y.9.e.` 4 p y y y y y y y y y y ",
"y y y y y y y y y p 6 c v O.f.f.W v M 1 y y y y y y y y y y y y ",
"y y y y y y y y y y p p # | f.f.K % y y y y y y y y y y y y y y ",
"y y y y y y y y y y y p ; ..f.f.U < p y y y y y y y y y y y y y ",
"y y y y y y y y y y p p ; X.f.f.U , p y y y y y y y y y y y y y ",
"y y y y y y y y y y p p % [ f.f.J * p y y y y y y y y y y y y y ",
"y y y y y y y y y y p 7 m -.f.f.| 4 y p y y y y y y y y y y y y ",
"y y y y y y y y y p y p =.f.f.f.f.[ < p y y y y y y y y y y y y ",
"y y y y y y y y y p ; U f.3.A T f.w.Z 6 y y y y y y y y y y y y ",
"y y y y y y y y y p ; ^ f.]   . 4.f.F 1 p y y y y y y y y y y y ",
"y y y y y y y y p p ; H f.8.R Q f.6.m 6 p y y y y y y y y y y y ",
"y y y y y y y y y y a 7 +.f.u.f.f.~ ; p y y y y y y y y y y y y ",
"y y y y y y y y y y p y y ^ %.+.J 2 y y y y y y y y y y y y y y ",
"y y y y y y y y y y y y y - 2 ; ; p y y y y y y y y y y y y y y ",
"t t t t t t t t y t y p t p a a p t t t y t y y y y t t t t t t ",
"l l l l l l l l l l l l l l l l l l l l l l l l l l l l l l l l ",
"+ + + + + + + + + + + + + + + + + + + + + + + + + + + + + + + + ",
"X X X X X X X X X X X X X X X X X X X X X X X X X X X X X X X X ",
"O O O O o o o o O O O O O O O O o o o o O O O O O O O O O o o o ",
"o o o o o o o o o o o o o o o o o o o o o o o o o o o o o o o o "
};
