/* XPM */
static char * gaf_icon_xpm[] = {
"48 60 503 2",
"  	c None",
". 	c #8D8E8B",
"+ 	c #8B8D88",
"@ 	c #8D8F8A",
"# 	c #8D908B",
"$ 	c #E5E5E4",
"% 	c #FFFFFF",
"& 	c #FFFFFE",
"* 	c #FEFEFE",
"= 	c #E8E8E7",
"- 	c #8E8F8B",
"; 	c #EEEEED",
"> 	c #EEEEEC",
", 	c #E7E8E5",
"' 	c #ECECE9",
") 	c #E2C6C4",
"! 	c #CF9694",
"~ 	c #999B97",
"{ 	c #FDFDFD",
"] 	c #A8383D",
"^ 	c #A40000",
"/ 	c #E8D9D7",
"( 	c #999A96",
"_ 	c #D06004",
": 	c #D2680F",
"< 	c #D16103",
"[ 	c #A7A9A5",
"} 	c #FBFBFA",
"| 	c #EBECEA",
"1 	c #A797A8",
"2 	c #7B536C",
"3 	c #E8E9E6",
"4 	c #ECEDEB",
"5 	c #EFEFED",
"6 	c #FBFBFB",
"7 	c #ABAEA9",
"8 	c #F2AB53",
"9 	c #FBC16F",
"0 	c #E79744",
"a 	c #CF6003",
"b 	c #B5B6B3",
"c 	c #F9F9F8",
"d 	c #E6E9E1",
"e 	c #70A550",
"f 	c #569339",
"g 	c #CEDDBD",
"h 	c #EDEDEB",
"i 	c #EFEFEE",
"j 	c #E9EAE6",
"k 	c #EEEEEB",
"l 	c #F0F0EE",
"m 	c #F9FAF9",
"n 	c #B6B7B4",
"o 	c #FDC066",
"p 	c #FBB042",
"q 	c #F4B15C",
"r 	c #D97A27",
"s 	c #C1C3C0",
"t 	c #F9F9F9",
"u 	c #E2E3E0",
"v 	c #939590",
"w 	c #91938E",
"x 	c #B2B3B0",
"y 	c #D6E2C9",
"z 	c #5EA21E",
"A 	c #79AE4C",
"B 	c #A4C781",
"C 	c #F0F0EF",
"D 	c #FAFAFA",
"E 	c #C2AA92",
"F 	c #CF6106",
"G 	c #FBAF3F",
"H 	c #F19C31",
"I 	c #ECA14C",
"J 	c #DF8A3C",
"K 	c #CE5D01",
"L 	c #CCCDCB",
"M 	c #F5F6F5",
"N 	c #ECECEA",
"O 	c #C5C6C2",
"P 	c #C7C7C6",
"Q 	c #C9C9C7",
"R 	c #C5C5C2",
"S 	c #D8D9D6",
"T 	c #D4E1C7",
"U 	c #67A729",
"V 	c #97BF6E",
"W 	c #A2C680",
"X 	c #EAEBE7",
"Y 	c #EEEFEC",
"Z 	c #F1F1EF",
"` 	c #F1F1F0",
" .	c #EAEBE8",
"..	c #EED6C1",
"+.	c #D0660D",
"@.	c #F2AB54",
"#.	c #ECA04B",
"$.	c #E39143",
"%.	c #CF5F03",
"&.	c #D7D7D6",
"*.	c #F4F4F3",
"=.	c #A8A9A5",
"-.	c #A7A8A4",
";.	c #A6A7A3",
">.	c #C0C1BD",
",.	c #D5E1C8",
"'.	c #67A72A",
").	c #97C06F",
"!.	c #A4C780",
"~.	c #F0F0ED",
"{.	c #F2F2F0",
"].	c #EAD2BC",
"^.	c #D26810",
"/.	c #FDBF65",
"(.	c #818380",
"_.	c #DFE0DE",
":.	c #F6F6F5",
"<.	c #D7E3CB",
"[.	c #9AC273",
"}.	c #A5C882",
"|.	c #F2F2F1",
"1.	c #EAD2BD",
"2.	c #EC9F4A",
"3.	c #828582",
"4.	c #EDEEEB",
"5.	c #63A524",
"6.	c #88B75F",
"7.	c #EBECE9",
"8.	c #F0F1EE",
"9.	c #F3F3F1",
"0.	c #F0F1EF",
"a.	c #F3F3F2",
"b.	c #E5CDB7",
"c.	c #F2AC55",
"d.	c #E39144",
"e.	c #838682",
"f.	c #EFF0EE",
"g.	c #E9EAE7",
"h.	c #EFEFEC",
"i.	c #E6EBDF",
"j.	c #63A232",
"k.	c #539720",
"l.	c #C5DAB0",
"m.	c #ECEDE9",
"n.	c #F2F2EF",
"o.	c #F4F4F2",
"p.	c #ECEDEA",
"q.	c #ECD3BF",
"r.	c #D1680F",
"s.	c #F19C30",
"t.	c #808380",
"u.	c #F4F5F4",
"v.	c #AAB9CD",
"w.	c #6884AC",
"x.	c #E9D3D3",
"y.	c #EFE5E4",
"z.	c #F5F5F3",
"A.	c #EC9F49",
"B.	c #7D807D",
"C.	c #EFF0ED",
"D.	c #EAEBE9",
"E.	c #93A7C1",
"F.	c #30568E",
"G.	c #4D6E9E",
"H.	c #4E6F9E",
"I.	c #4C6D9C",
"J.	c #516B99",
"K.	c #A10304",
"L.	c #B63C3C",
"M.	c #F5F5F4",
"N.	c #F2F3F1",
"O.	c #E6CFB8",
"P.	c #E39245",
"Q.	c #CD6008",
"R.	c #797C77",
"S.	c #FDFDFC",
"T.	c #A9B7CD",
"U.	c #5675A1",
"V.	c #C5CEDA",
"W.	c #C6CFDC",
"X.	c #C0CAD5",
"Y.	c #B55F64",
"Z.	c #D89E9D",
"`.	c #EDEEEC",
" +	c #EDD5C0",
".+	c #D16810",
"++	c #EC9F48",
"@+	c #D1650E",
"#+	c #917052",
"$+	c #727572",
"%+	c #E6ECDE",
"&+	c #DBE7CF",
"*+	c #A0B6B6",
"=+	c #6985AA",
"-+	c #F7F7F6",
";+	c #D26811",
">+	c #FDBF64",
",+	c #F0D0B6",
"'+	c #717471",
")+	c #787A78",
"!+	c #B0CE91",
"~+	c #92BF67",
"{+	c #E6EBE1",
"]+	c #9DC476",
"^+	c #58A017",
"/+	c #9FB7AA",
"(+	c #F3F4F2",
"_+	c #F4F5F3",
":+	c #E7CFB9",
"<+	c #F2AD56",
"[+	c #FBAE3E",
"}+	c #E5C5A9",
"|+	c #6F726F",
"1+	c #878987",
"2+	c #B0CF90",
"3+	c #7AB245",
"4+	c #5FA31F",
"5+	c #88BA59",
"6+	c #E4ECDC",
"7+	c #F6F6F4",
"8+	c #EFD6C2",
"9+	c #FDBE63",
"0+	c #EC9E47",
"a+	c #EBCBB1",
"b+	c #7B7E7C",
"c+	c #969996",
"d+	c #FCFCFC",
"e+	c #AECF8F",
"f+	c #64A625",
"g+	c #CFE1BD",
"h+	c #E4E5E3",
"i+	c #DBDCDA",
"j+	c #DCDDDA",
"k+	c #E1E1E0",
"l+	c #EFD6C3",
"m+	c #E39246",
"n+	c #ECCCB2",
"o+	c #F8F8F7",
"p+	c #8A8D8B",
"q+	c #A5A7A6",
"r+	c #C67172",
"s+	c #A21B1E",
"t+	c #96A2BA",
"u+	c #97AAC3",
"v+	c #93A6BF",
"w+	c #79A475",
"x+	c #80B25F",
"y+	c #F3F4F3",
"z+	c #B4B5B2",
"A+	c #A2A39F",
"B+	c #A3A5A1",
"C+	c #A4A5A2",
"D+	c #B69C7F",
"E+	c #D46D17",
"F+	c #E6C7AB",
"G+	c #F6F7F5",
"H+	c #9A9C9C",
"I+	c #B4B6B6",
"J+	c #C26C6D",
"K+	c #9E151A",
"L+	c #7E8EAC",
"M+	c #7D95B6",
"N+	c #7992B2",
"O+	c #6A976E",
"P+	c #7BAE5C",
"Q+	c #BEBFBC",
"R+	c #ACADA9",
"S+	c #AEAFAC",
"T+	c #AFB0AD",
"U+	c #E2AA5F",
"V+	c #F1C184",
"W+	c #EC9E46",
"X+	c #D1660F",
"Y+	c #E5C5AA",
"Z+	c #DDDEDC",
"`+	c #E0E0DE",
" @	c #E5E5E5",
".@	c #E4E5E2",
"+@	c #F6F6F6",
"@@	c #ABADAB",
"#@	c #C3C4C3",
"$@	c #FAFAF9",
"%@	c #B1D091",
"&@	c #6BAB31",
"*@	c #E0EBD6",
"=@	c #F2F4EF",
"-@	c #F8F8F8",
";@	c #DDDEDB",
">@	c #D2D3D0",
",@	c #D2D3D1",
"'@	c #D7CDBB",
")@	c #E7B369",
"!@	c #FEFDFD",
"~@	c #FEF6EA",
"{@	c #F3AC52",
"]@	c #E39347",
"^@	c #D0640E",
"/@	c #CEAE93",
"(@	c #D3D3D2",
"_@	c #D9D9D9",
":@	c #E0E0E0",
"<@	c #E6E6E5",
"[@	c #EDEDEC",
"}@	c #F7F7F7",
"|@	c #B8BAB9",
"1@	c #D0D1D0",
"2@	c #F1F2F0",
"3@	c #73AF3C",
"4@	c #5BA118",
"5@	c #5EA31E",
"6@	c #E5EDDB",
"7@	c #F6F7F6",
"8@	c #EBC48E",
"9@	c #EDC48F",
"0@	c #FBF3E7",
"a@	c #F5E2C3",
"b@	c #EFC389",
"c@	c #CF630D",
"d@	c #C0A085",
"e@	c #C4C5C4",
"f@	c #CECECE",
"g@	c #CDCDCC",
"h@	c #D8D9D7",
"i@	c #E2E2E2",
"j@	c #F2F3F2",
"k@	c #C3C5C3",
"l@	c #626563",
"m@	c #DADBDA",
"n@	c #B1D092",
"o@	c #92C067",
"p@	c #B8D1A0",
"q@	c #599F16",
"r@	c #549D0F",
"s@	c #ADC1B2",
"t@	c #EFEEEA",
"u@	c #CEA262",
"v@	c #F4DCBA",
"w@	c #F1D19F",
"x@	c #E9B871",
"y@	c #E5AC62",
"z@	c #DF9949",
"A@	c #BF9F85",
"B@	c #B8B8B7",
"C@	c #C3C3C2",
"D@	c #CBCBCA",
"E@	c #C9CAC7",
"F@	c #DADAD9",
"G@	c #E8E8E8",
"H@	c #E5E6E3",
"I@	c #F5F5F5",
"J@	c #CCCDCC",
"K@	c #535757",
"L@	c #646966",
"M@	c #E2E2E1",
"N@	c #E1EBD7",
"O@	c #D2E3C1",
"P@	c #9BB6A9",
"Q@	c #6A86AA",
"R@	c #998D7B",
"S@	c #040302",
"T@	c #C79959",
"U@	c #E7B66C",
"V@	c #DAA968",
"W@	c #CCA473",
"X@	c #BCAB98",
"Y@	c #B8B8B8",
"Z@	c #C6C6C6",
"`@	c #D6D6D5",
" #	c #EBEBEB",
".#	c #ECECEB",
"+#	c #ECECEC",
"@#	c #EDEDED",
"##	c #F4F4F4",
"$#	c #D3D5D4",
"%#	c #595B5A",
"&#	c #646867",
"*#	c #EAF0E4",
"=#	c #A3B9B8",
"-#	c #648696",
";#	c #E4EDDC",
">#	c #F1F2EF",
",#	c #5F5B56",
"'#	c #665A46",
")#	c #ABA18F",
"!#	c #C6C6C4",
"~#	c #E6E7E6",
"{#	c #F0F0F0",
"]#	c #E9EAE8",
"^#	c #EEEFEE",
"/#	c #F1F1F1",
"(#	c #EBECEB",
"_#	c #EFEFEF",
":#	c #E6E7E5",
"<#	c #F1F2F1",
"[#	c #DBDCDC",
"}#	c #5B5E5D",
"|#	c #626665",
"1#	c #EDEEED",
"2#	c #7BB344",
"3#	c #5DA020",
"4#	c #569A1C",
"5#	c #66A728",
"6#	c #E5EFDD",
"7#	c #FCFCFB",
"8#	c #E3E4E4",
"9#	c #5C6060",
"0#	c #5E6261",
"a#	c #F2F2F2",
"b#	c #5D6060",
"c#	c #575D5C",
"d#	c #F7F8F7",
"e#	c #F8F9F8",
"f#	c #F3F4F1",
"g#	c #F8F9F7",
"h#	c #575C5B",
"i#	c #525656",
"j#	c #ECEDE8",
"k#	c #F1F1EE",
"l#	c #F4F4F1",
"m#	c #EDEEEA",
"n#	c #F7F7F4",
"o#	c #F9F9F7",
"p#	c #F8F8F6",
"q#	c #FAFBFA",
"r#	c #F7F7F5",
"s#	c #515756",
"t#	c #4E5252",
"u#	c #D3D7CF",
"v#	c #D4D7CF",
"w#	c #D4D7D0",
"x#	c #D3D7D0",
"y#	c #D4D8D0",
"z#	c #D4D8D1",
"A#	c #D4D7D1",
"B#	c #D5D8D2",
"C#	c #D5D8D1",
"D#	c #D5D7D2",
"E#	c #D6D8D3",
"F#	c #D5D8D3",
"G#	c #D6D8D2",
"H#	c #D5D8D4",
"I#	c #484C4C",
"J#	c #444848",
"K#	c #EDEFEB",
"L#	c #D3D6CF",
"M#	c #D2D6CE",
"N#	c #D2D5CE",
"O#	c #D1D5CD",
"P#	c #D1D4CD",
"Q#	c #D0D4CD",
"R#	c #D0D3CC",
"S#	c #CFD3CC",
"T#	c #CFD2CC",
"U#	c #CED2CB",
"V#	c #CED1CB",
"W#	c #CDD1CA",
"X#	c #CED1CA",
"Y#	c #CDD0CA",
"Z#	c #CDD0C9",
"`#	c #CCCFC9",
" $	c #CCCEC9",
".$	c #CBCEC8",
"+$	c #CBCEC7",
"@$	c #CACDC8",
"#$	c #CACCC7",
"$$	c #C9CCC7",
"%$	c #3A3E3E",
"&$	c #3F403D",
"*$	c #EBEAE4",
"=$	c #EAEAE4",
"-$	c #EAEAE3",
";$	c #EAE9E3",
">$	c #E9E9E2",
",$	c #E9E8E2",
"'$	c #E8E8E1",
")$	c #E7E7E0",
"!$	c #E7E6E0",
"~$	c #E6E6E0",
"{$	c #E6E6DF",
"]$	c #E5E5DF",
"^$	c #E5E5DE",
"/$	c #E4E4DE",
"($	c #E4E3DE",
"_$	c #E3E3DD",
":$	c #E2E2DC",
"<$	c #E2E1DB",
"[$	c #E1E1DB",
"}$	c #E1E1DA",
"|$	c #E0E0D9",
"1$	c #E0DFD9",
"2$	c #DEDED8",
"3$	c #DDDDD7",
"4$	c #DDDCD6",
"5$	c #DCDCD6",
"6$	c #DCDBD6",
"7$	c #DBDBD5",
"8$	c #DFDED8",
"9$	c #343532",
"0$	c #BE7C13",
"a$	c #BD7C13",
"b$	c #BD7C12",
"c$	c #BE7C12",
"d$	c #000000",
"                                                                                                ",
"                                                                                                ",
"                                                                                                ",
"                                                                                                ",
"                                                                                                ",
"                                                                                                ",
"                                                                                                ",
"                                                                                                ",
"                                                                                                ",
"                                                                                                ",
"                                                                                                ",
"                . + + + + + + + + + + + + + + + + + + + + + + + + + + + + + @                   ",
"              # $ % & * * & * * & * * & * * & * * & * * & * * & * * & * * % = -                 ",
"              @ * ; > , ' > , ' > , ' ) ! ' > , ' > , ' > , ' > , ' > , ' > * @                 ",
"              ~ { > > > > > > > > > > ] ^ / > > > > > > > > > > > > > > > > { (       _ : <     ",
"              [ } | > , | > , | > , | 1 2 | ; 3 4 5 3 4 5 3 4 5 3 4 5 3 4 5 6 7     _ 8 9 0 a   ",
"              b c ' > , ' > , ' > , d e f g 5 3 h i j k l j k l j k l j k i m n   _ 8 o p q r   ",
"              s t > u v w w w x 5 5 y z A B l l l l l C C C C C C C C C C l D E F 8 o G H I J K ",
"              L M | N O P Q R S i j T U V W C X Y Z X Y Z X Y `  .Y Z X Y Z ..+.@.o G H #.$.%.  ",
"              &.*.' $ =.-.=.;.>.l j ,.'.).!.Z  .5 `  .~.{. .~.{. .~.{. .~.].^.@./.G H #.$.%.    ",
"            (._.:.5 5 5 l l l C Z Z <.'.[.}.{.{.|.|.|.|.|.|.|.|.|.|.|.|.1.^.@./.G H 2.$.%.      ",
"            3.= ` 4 l j 4.C X Y `  .y 5.6.B |.7.8.9.7.0.a.7.0.a.7.0.a.b.^.c./.G H 2.d.%.        ",
"            e.; f.k l g.h.Z  .5 {. .i.j.k.l.a.7.Z a.m.n.o.p.{.*.p.{.q.r.c./.G s.2.d.%.          ",
"            t.u.o.C Z Z ` ` {.|.|.9.9.v.w.a.o.*.*.*.x.y.*.*.*.z.z.q.^.c./.G s.A.d.%.            ",
"            B.t h Y Z  .C.{.D.8.9.7.0.E.F.G.H.I.G.J.K.L.M.4.N.M.O.^.c./.G s.A.P.Q.              ",
"            R.S.m.5 `  .l |.7.Z a.m.{.T.U.V.W.X.V.W.Y.Z.:.`.o. +.+c./.G s.++P.@+#+              ",
"            $+% ` {.{.|.9.a.a.%+&+*.*.*+=+M.M.:.:.:.:.:.:.-+..;+c.>+G s.++P.@+,+'+              ",
"            )+*  .C.|.7.0.a.m.!+~+{+]+^+/+(+:.`._+-+Y _+-+:+;+<+>+[+s.++P.@+}+% |+              ",
"            1+{  .l 9.7.Z *.p.2+3+4+5+6+`.o.-+Y z.-+C.7+8+^.<+9+[+s.0+P.@+a+Y * b+              ",
"            c+d+|.9.a.a.*.*.z.e+f+g+:.:.-+-+h+i+j+j+k+l+;+<+9+[+s.0+m+@+n+o+o+* p+              ",
"            q+6 7.0.r+s+t+u+v+w+x+`.y+-+Y u.z+A+B+C+D+E+<+9+[+s.0+m+@+F+G+M. .t H+              ",
"            I+} 7.Z J+K+L+M+N+O+P+Y z.-+C.7+Q+R+S+T+U+V+o [+s.W+m+X+Y+Z+`+ @.@+@@@              ",
"            #@$@a.o.*.*.M.M.:.%@&@*@=@o+o+-@;@>@,@'@)@!@~@{@W+]@^@/@(@_@:@<@[@}@|@              ",
"            1@t 7.2@*.4.N.7+`.e+3@4@5@6@f.G+t 0.7@8@9@0@a@b@]@c@d@e@f@g@h@i@_.j@k@              ",
"          l@m@-@m.{.*.4.9.:.`.n@o@p@q@r@s@:.$@0.t@u@v@w@x@y@z@A@B@C@D@E@F@G@H@I@J@K@            ",
"          L@M@-+o.*.z.M.M.:.:.N@O@o+o+P@Q@t $@D R@S@T@U@V@W@X@Y@Z@`@i@ #.#+#@###$#%#            ",
"          &#G@:.m.2@z.4.(+:.`._+}@C.*#=#-#;#D >#,#'#)#!#`@h@~#{#]#^#/#, (#_#:#<#[#}#            ",
"          |#1#M.p.{.M.4.o.:.Y z.}@C.2#3#4#5#6#>#o+7#2@o+D f.:.-@`.*.+@4 |.##D.*.8#9#            ",
"          0#a#*.*.*.M.M.:.:.-+-+}@o+-@c t $@D } 6 7#d+d+{ { * * * { d+d+6 6 D 6 +#b#            ",
"          c#:.*.m.2@z.4.(+:.`._+}@C.M c 0.7@D >#d#6 N.e#S.(+m { (+m { f#e#7#2@g#/#h#            ",
"          i#$@{.j#k#l#m#>#_+4 9.:.Y z.o+C.M.c f.n#m 0.o+6 2@o#d+N.o#6 2@p#q#0.r#+@s#            ",
"          t#C.u#u#u#u#u#u#v#u#w#u#w#x#w#x#w#y#w#z#A#z#A#z#B#C#B#B#B#D#B#E#F#G#H#4 I#            ",
"          J#K#u#u#u#u#L#M#N#O#N#O#P#Q#R#S#R#S#T#U#V#W#X#W#Y#Z#`#`#`# $.$+$@$#$$$:#%$            ",
"          &$*$*$=$-$-$;$>$,$'$'$)$!$~${$]$^$/$($_$_$:$<$[$}$|$1$1$2$2$3$4$5$6$7$8$9$            ",
"          0$0$a$a$a$a$a$a$b$b$b$b$b$b$b$b$b$b$b$b$b$b$b$b$b$b$b$b$b$b$b$b$b$b$b$a$c$            ",
"                                                                                                ",
"                                                                                                ",
"                                            d$                                                  ",
"                                            d$                                                  ",
"                                            d$                                                  ",
"            d$d$d$d$  d$d$d$d$    d$d$d$    d$  d$d$      d$d$d$    d$  d$d$  d$d$d$            ",
"          d$      d$  d$        d$          d$      d$  d$      d$  d$      d$      d$          ",
"          d$      d$    d$d$d$  d$          d$      d$  d$d$d$d$d$  d$      d$      d$          ",
"          d$      d$        d$  d$          d$      d$  d$          d$      d$      d$          ",
"            d$d$d$d$  d$d$d$      d$d$d$    d$      d$    d$d$d$d$  d$      d$      d$          ",
"                  d$                                                                            ",
"            d$d$d$                                                                              ",
"                                                                                                ",
"                                                                                                ",
"                                                                                                "};
