/* XPM */
static char *iceweasel[] = {
/* columns rows colors chars-per-pixel */
"32 32 247 2 ",
"   c #1D1D1E",
".  c #1F2020",
"X  c #3C6137",
"o  c gray34",
"O  c #446C53",
"+  c #415C6E",
"@  c #445B74",
"#  c #435B7B",
"$  c #436065",
"%  c #446862",
"&  c #42626B",
"*  c #48676B",
"=  c #486A6A",
"-  c #486571",
";  c #526478",
":  c #777777",
">  c #7E7E7E",
",  c #2216A4",
"<  c #2617B4",
"1  c #291AB7",
"2  c #2B1CBC",
"3  c #2F21AD",
"4  c #372DA2",
"5  c #2E20B5",
"6  c #3627B8",
"7  c #3A2CBB",
"8  c #3A3BB5",
"9  c #3C32BD",
"0  c #3E38BA",
"q  c #463AB0",
"w  c #4134BC",
"e  c #403DBC",
"r  c #483CBC",
"t  c #3F4F88",
"y  c #3C4595",
"u  c #3E4995",
"i  c #3F40B3",
"p  c #414F8F",
"a  c #425781",
"s  c #435A84",
"d  c #495A89",
"f  c #475095",
"g  c #4D5A97",
"h  c #494FA5",
"j  c #515BA5",
"k  c #5852A9",
"l  c #5059A8",
"z  c #4240B7",
"x  c #4F42BF",
"c  c #5246BF",
"v  c #4854BC",
"b  c #5D52B9",
"n  c #4673AD",
"m  c #2F1FC1",
"M  c #3222C4",
"N  c #3827C7",
"B  c #372EC3",
"V  c #3D2EC4",
"C  c #3425C9",
"Z  c #3728CE",
"A  c #3C2DCA",
"S  c #3D32C2",
"D  c #3C3AC0",
"F  c #3E30CC",
"G  c #4234C3",
"H  c #463AC1",
"J  c #4B3EC3",
"K  c #4436CB",
"L  c #473ACC",
"P  c #4A3CC8",
"I  c #4032D1",
"U  c #4E41C4",
"Y  c #434BC3",
"T  c #4A48C1",
"R  c #5146C0",
"E  c #564BC4",
"W  c #5344CA",
"Q  c #574ACB",
"!  c #594DCB",
"~  c #5455C2",
"^  c #5D52C4",
"/  c #5D52CB",
"(  c #5445D3",
")  c #5A4DD2",
"_  c #5448D8",
"`  c #5C50D1",
"'  c #6157C7",
"]  c #635AC5",
"[  c #6156C8",
"{  c #655CCB",
"}  c #6A5FC8",
"|  c #6559D4",
" . c #6359D9",
".. c #695ED9",
"X. c #5A66C6",
"o. c #596BC4",
"O. c #6C62C4",
"+. c #6B62CC",
"@. c #776FC2",
"#. c #7066C9",
"$. c #756CCC",
"%. c #796FCD",
"&. c #7D75CE",
"*. c #7F78CC",
"=. c #6E63D0",
"-. c #6D63D8",
";. c #746AD0",
":. c #7066DC",
">. c #756BD9",
",. c #7D74D2",
"<. c #797DD4",
"1. c #7A74D9",
"2. c #827ACF",
"3. c #847BD2",
"4. c #837AD8",
"5. c #847BE0",
"6. c #887FE0",
"7. c #588498",
"8. c #5A82B3",
"9. c #7481A5",
"0. c #7683AD",
"q. c #7D8AA9",
"w. c #6B83B0",
"e. c #6F89B5",
"r. c #6884BE",
"t. c #678BBC",
"y. c #6B8DBD",
"u. c #7088B5",
"i. c #7B8CB1",
"p. c #7082BD",
"a. c #6E90BE",
"s. c #7D91B6",
"d. c #7192BE",
"f. c #6F82C9",
"g. c #7484C7",
"h. c #7B8FC3",
"j. c #7180C9",
"k. c #7395C0",
"l. c #7798C2",
"z. c #7D9AC2",
"x. c #7F99C8",
"c. c #838383",
"v. c #8191AF",
"b. c #8F9EB6",
"n. c #8C9CBB",
"m. c #AEAEAE",
"M. c #AEAFB2",
"N. c #BBBCBC",
"B. c #8685C1",
"V. c #848AC1",
"C. c #8F8AC6",
"Z. c #908BCA",
"A. c #8094C0",
"S. c #839CC4",
"D. c #8A9ECB",
"F. c #8B83D4",
"G. c #828BD1",
"H. c #8B84DA",
"J. c #918AD4",
"K. c #9089DE",
"L. c #9790D6",
"P. c #9992D7",
"I. c #9C96DA",
"U. c #9F98DA",
"Y. c #A39DDB",
"T. c #8BA0C2",
"R. c #85A3C8",
"E. c #8AA6CB",
"W. c #94ADCD",
"Q. c #9CADC9",
"!. c #92ABD0",
"~. c #96B0D0",
"^. c #9DB4D2",
"/. c #A1A8C6",
"(. c #A4B3CA",
"). c #AAB9CE",
"_. c #A7A1DC",
"`. c #ABA5DD",
"'. c #A2B4D4",
"]. c #A5B9D4",
"[. c #AABDD1",
"{. c #A6B9DB",
"}. c #B6B3D5",
"|. c #B1BCD0",
" X c #BBB7DE",
".X c #9087E3",
"XX c #9D97E7",
"oX c #9C94E8",
"OX c #A29BE4",
"+X c #A39CE9",
"@X c #A9A3E3",
"#X c #A7A0E8",
"$X c #AEA7EC",
"%X c #B3AEE1",
"&X c #B7B2E2",
"*X c #BBB7E3",
"=X c #BEBAE4",
"-X c #BAB4EE",
";X c #BEBAEB",
":X c #B7B2F1",
">X c #C0BCE5",
",X c #C1BDE9",
"<X c #C3BFF0",
"1X c #A9C1DB",
"2X c #BDC6D1",
"3X c #B2C3DD",
"4X c #BCCCE1",
"5X c #BFD1E4",
"6X c #C5C2DF",
"7X c #C2CEDF",
"8X c #CCD4DD",
"9X c #C9C6E7",
"0X c #C0CEE4",
"qX c #CDCAE7",
"wX c #C4C1EB",
"eX c #D0CDE8",
"rX c #C5D2E3",
"tX c #CBD4E5",
"yX c #CBD7E8",
"uX c #CDDAE9",
"iX c #D3D0EE",
"pX c #D1DBEA",
"aX c #C9C5F3",
"sX c #CFCCF3",
"dX c #D2CEF5",
"fX c #D4D5F1",
"gX c #D9D6F3",
"hX c #DCDAF4",
"jX c #D6E0ED",
"kX c #D8E1EF",
"lX c #D7E3F1",
"zX c #DBE6F2",
"xX c #DEE9F4",
"cX c #E1E2E5",
"vX c #E9E7F7",
"bX c #E4ECF4",
"nX c #E8EEF5",
"mX c #E8E7FA",
"MX c #EFEDFA",
"NX c #F0EFFA",
"BX c #EBF1F6",
"VX c #ECF2F8",
"CX c gray96",
"ZX c #F2F5FA",
"AX c #F6F9FB",
"SX c #FDFEFE",
"DX c None",
/* pixels */
"DXDXDXDXDXDXDXDXDXDXDXDXDXDXDXDXDXDXd.4X^.DXk.E.8.DXDXDXDXDXDXDX",
"DXDXDXDXDXDXDXDXDXDXDXDXDXDXDXDXDXDXnXbXZXSXAXSXSX3Xd.DXDXDXDXDX",
"DXDXDXDXDXDXDXDXDXDXDXDXa.l.R.~.3XkXZXSXSXSXxXVXSXSXAXt.R.DXDXDX",
"DXDXDXDXDXDXDXDXDX'.bXSXSXSXSXSXSXSXSXSXSXSXSXSXSXVXAXZXVXZXDXDX",
"DXDXDXDXDXDXDXDXkXSXSXSXSXSXSXSXSXSXSXSXM.2XSXSXnXVXSXSXSXnXE.DX",
"DXDXDXDXDXDXDX4XSXSXSXbX].n.e.w.e.S.nXSX  ; SXSXSX8XSXSXSXZXDXDX",
"DXDXDXDXDXDXa.SXSXbXi.h Z. X9XqX6X}.7XZXAXVXSXSX[.. m.SXSX^.DXDX",
"DXDXDXDXDXDX].SX7Xy O.P.`.%X X>X=X&XQ.bXAXSXSXSXAXN.CXSX~.DXDXDX",
"DXDXDXDXDXDXrXSX0.b 2.J.P.Y._.`.`.Y.B.zXlXSXSXSXSXAXVX4XDXDXDXDX",
"DXDXDXDXDXDXpXSX9.] 3.P.F.L.Y.`.`.Y.J.0.BX: > BXzXxXrXDXDXDXDXDX",
"DXDXDXDXDX& pXSX9.^ %.fXiXU.U.U.U.U.U.C.b.c.o cXlXp.DXDXDXDXDXDX",
"DXDXDXDXDXB tXSXq.NX$.6X,X&.2.3.2.*.%.O.k v.n.j , M + DXDXDXDXDX",
"DXDXDXDXt m 4XSXb.*.c ^ 2.2.&.&.&.%.#.] E q @.r _.1 9 DXDXDXDXDX",
"DXDXDXDX9 2 '.AX).4 x c #.P.&.&.&.$.} ^ x ^ AX$.5 7 C O DXDXDXDX",
"DXDXDXDXC 1 h.uXQ.3 w x ' J.I.3.2.$.} ^ ' ^ 3.9 < < M u DXDXDXDX",
"DXDXDX* M 2 8 n.f 6 w x ' %.%XXXH.2.3.F.' 7 J U 1 < 2 8 DXDXDXDX",
"DXDXDXa M 1 2 G J 7 w E { &.,XvXgX,XI.{ J 9 w E 2 2 2 9 DXDXDXDX",
"DXDXDXp m 2 2 U J 9 J Q =.4.hXSXAX,X;./ J w J W 2 2 2 S DXDXDXDX",
"DXDXDX# M 2 m T r.d.r.~ =.I.hXZXMX@X=./ J G P W 2 2 m 0 DXDXDXDX",
"DXDXDX% C m M v n 8.k.~.S.H.H.@X-XK.{ Q J S Q G M m M q DXDXDXDX",
"DXDXDXDXI m M D y.a.W.3XpX4Xg.1.3.OX=.! P V ` N M M C s DXDXDXDX",
"DXDXDXDXz F M K E.E.3XpXnXZXSX0X*.K.4.| Q W ` N F M Y 7.DXDXDXDX",
"DXDXDXDX* Z K H.;Xx.uXnXSXSXSXSXAX3XG.>.| -. .( N C {.DXDXDXDXDX",
"DXDXDXDXDX0 F ) 5.fXD.VXSXSXSXSXSXSXAX3X<.AX:.( K o.uXDXDXDXDXDX",
"DXDXDXDXDXDXI ) ..dXXXz.VXSXSXSXSXSXSXAXnX{.f.X.f.kX~.DXDXDXDXDX",
"DXDXDXDXDXDX- _ >.5.+XXXV.|.AXSXSXSXAXZXVXnXbXbXxX5XDXDXDXDXDXDX",
"DXDXDXDXDXDXDX*  ..X#X$X:X%Xi.(.bXVXVXbXxXxXzXlX1XDXDXDXDXDXDXDX",
"DXDXDXDXDXDXDXDXO { oX-X<XsXgXeX/.s.T.W.^.!.z.8.DXDXDXDXDXDXDXDX",
"DXDXDXDXDXDXDXDXDXDX@ +.oXaXmXZXMXgX+X1.l DXDXDXDXDXDXDXDXDXDXDX",
"DXDXDXDXDXDXDXDXDXDXDXDXDX$ d j g @ X DXDXDXDXDXDXDXDXDXDXDXDXDX",
"DXDXDXDXDXDXDXDXDXDXDXDXDXDXDXDXDXDXDXDXDXDXDXDXDXDXDXDXDXDXDXDX",
"DXDXDXDXDXDXDXDXDXDXDXDXDXDXDXDXDXDXDXDXDXDXDXDXDXDXDXDXDXDXDXDX"
};
