/* XPM */
static char *Nedit[] = {
/* columns rows colors chars-per-pixel */
"26 32 146 2",
"   c #6B697F",
".  c #66618A",
"X  c #6E688A",
"o  c #676094",
"O  c #6B6493",
"+  c #69669D",
"@  c #6E6994",
"#  c #6D699A",
"$  c #726F85",
"%  c #706D8C",
"&  c #716C94",
"*  c #736D9C",
"=  c #737081",
"-  c #75728F",
";  c #787683",
":  c #7B7A8C",
">  c #757294",
",  c #74719B",
"<  c #797495",
"1  c #7A749C",
"2  c #7C7A94",
"3  c #7C799B",
"4  c #6D67A3",
"5  c #6E6BA4",
"6  c #6D68A8",
"7  c #726CA4",
"8  c #726DAA",
"9  c #746FB1",
"0  c #7472A2",
"q  c #7571AA",
"w  c #7A74A5",
"e  c #7871AB",
"r  c #7C78A3",
"t  c #7D78AB",
"y  c #7570B1",
"u  c #7B76B0",
"i  c #7F7CB1",
"p  c #817D9A",
"a  c #827DA3",
"s  c #807AAA",
"d  c #827AB3",
"f  c #878593",
"g  c #85809E",
"h  c #8A8896",
"j  c #8B899C",
"k  c #8582A4",
"l  c #8984A5",
"z  c #8A86A9",
"x  c #8C88A3",
"c  c #8584B0",
"v  c #8882B2",
"b  c #928DA3",
"n  c #928DAD",
"m  c #938EB6",
"M  c #9793AE",
"N  c #9997A4",
"B  c #9592B4",
"V  c #9995B4",
"C  c #9B96BE",
"Z  c #9E9BB8",
"A  c #A09DAC",
"S  c #A29DB3",
"D  c #A29DBC",
"F  c #A7A7A9",
"G  c #A6A4B7",
"H  c #A5A1BA",
"J  c #AAA7BC",
"K  c #AEADB1",
"L  c #ADABBC",
"P  c #B0B0B2",
"I  c #B3B3BC",
"U  c #B9B6BD",
"Y  c #BBBBBD",
"T  c #9A92C3",
"R  c #A6A1C3",
"E  c #A6A1C9",
"W  c #A8A4C4",
"Q  c #ADAAC2",
"!  c #AFACCB",
"~  c #A8A1D5",
"^  c #ADABD0",
"/  c #B2AFC4",
"(  c #B1ACCC",
")  c #B1ABD2",
"_  c #B6AFD9",
"`  c #B4B1C4",
"'  c #B8B5C6",
"]  c #B8B6CC",
"[  c #BCBAC3",
"{  c #BFBDCA",
"}  c #B9B6D1",
"|  c #BAB6DB",
" . c #BFBBD2",
".. c #BCBADB",
"X. c #BEB9E2",
"o. c #C2BECC",
"O. c #C1BFD0",
"+. c #C2BEE3",
"@. c #C3C2C4",
"#. c #C6C6CA",
"$. c #C4C2D2",
"%. c #C4C1DA",
"&. c #CAC6D5",
"*. c #CAC6DC",
"=. c #CCCADB",
"-. c #D2D2D4",
";. c #D3D2DB",
":. c #DBDBDD",
">. c #C5C1E6",
",. c #C9C5E3",
"<. c #CDCAE2",
"1. c #CCC9E8",
"2. c #C7C0F6",
"3. c #CFCBF0",
"4. c #D1CDEB",
"5. c #D4CDFF",
"6. c #D3D1E4",
"7. c #D4D2E9",
"8. c #D8D5EA",
"9. c #DDDBE6",
"0. c #DEDBEE",
"q. c #D5D1F2",
"w. c #D8D4FC",
"e. c #DCD9F1",
"r. c #E1DFED",
"t. c #E0DEF3",
"y. c #E2DDFC",
"u. c #E3E3E5",
"i. c #E5E4EA",
"p. c #EAEAED",
"a. c #E5E3F3",
"s. c #E4E2FD",
"d. c #E8E6F5",
"f. c #E9E5FD",
"g. c #EBEAF2",
"h. c #EEEBFD",
"j. c #F1EEFF",
"k. c #F6F6EC",
"l. c #F6F8EB",
"z. c #FAFDEA",
"x. c #F3F4F5",
"c. c #F4F3FC",
"v. c #F6F8F7",
"b. c #F8F6FE",
"n. c #FCFDF4",
"m. c #FDFDFD",
/* pixels */
"n.n.n.n.m.m.n.n.n.n.m.m.m.b.m.b.d.&.U @.n.n.z.n.n.n.",
"m.n.v.m.m.m.m.n.n.m.m.m.m.m.b.*.t.b.o.@.n.k.n.l.m.n.",
"m.m.m.m.b.m.m.m.m.v.i.K I 8.*.4.E ( / j.m.v.m.m.m.m.",
"m.m.m.m.m.m.m.j.m.i.L m.j.H O.a 1 O z j.b.m.m.m.m.m.",
"m.m.b.m.m.b.m.m.N [ g.h.8.Z X 1 * s * y.b.b.b.m.m.m.",
"v.m.m.m.b.m.b.d.Z f ` ` B n > 3 * o p q.c.b.m.m.m.m.",
"n.n.n.m.m.m.o.; $.c.b.m.m.h.s.| m 1 a } O.j.m.n.m.n.",
"n.n.m.m.b.#.h = : G 7.c.1.! >.w.h.4.S t.r./ u.m.m.n.",
"m.m.m.m.r./ a 6.O.- X a , , , , k ..s.Q 8.g.U ;.v.n.",
"m.b.m.=.O.n a p q.s 1 a r 0 # 0 , > k 3.W f.c.$.#.x.",
"A o.*.1.a _ 5.5.~ 7 e + 8 q 5 y # r # > ..B s.m.<.=.",
"b b ( 3 s T +.d e 7 e 4 5 y 9 y q 0 0 q 0 , E m.b.Q ",
"d.S p < @ 7 8 d 7 u 8 q 8 q 9 6 5 5 u 5 0 t * w.h.] ",
"b.b.j.D a * O e e 7 + q q 5 8 5 u q 8 5 5 i 0 ^ %.a.",
"m.m.j.J W a & 1 7 O v # 0 * 0 0 5 5 q 5 q # , 3 ! m.",
"b.b.r.-.b.t.( a p 3 ..1 1 , , , q q 5 y q 5 3 > &.m.",
"m.v.#.p.b.b.b.b.t.J j.- < 1 & w q y 8 q 8 e * < *.m.",
"m.m.U m.m.x.m.m.b.6.r.x < < q.) c . q q 7 7 o p *.b.",
"c.m.-.Y m.m.v.b.m.b.L Q p j b.b.s.R 0 0 e e t . 7.m.",
"m.m.m.;.K x.v.m.b.b.9.8.$ p b.b.c.b.! O t 7 * r y.b.",
"m.m.m.m.i.F p.g.m.m.j.$.G $ %.b.b.b.m.B * w # 3 j.m.",
"b.c.m.m.m.m.P -.m.c.m.b.d.' j.m.b.a.h.B , * C R b.m.",
"m.m.m.v.m.m.m.:.K p.c.m.b.b.m.b.6.j > > 1 r h.%.m.m.",
"m.m.m.m.v.m.m.m.v.@.U u.m.b.m.m.Q 3 > O r > 1.$.m.m.",
"m.m.m.m.m.m.m.m.v.m.p.[ Y p.m.m.4.< * a @ 1 V <.c.m.",
"m.m.m.m.m.m.m.m.m.v.m.m.p.Y @.g.j.R a & w s l 1.h.b.",
"m.m.m.m.m.m.m.m.m.m.m.v.m.m.u.[ I 6.s.T # w s ..j.b.",
"m.m.m.m.m.m.m.m.m.m.m.m.m.v.n.m.m.b.b.,.O t v X.b.b.",
"m.m.m.m.m.m.m.m.m.m.m.v.m.m.m.m.n.v.m.m.3 # & R b.b.",
"m.m.m.m.m.m.m.m.m.m.m.m.m.m.n.n.n.m.m.b.Z 3 3 ..m.m.",
"m.m.m.m.m.m.m.m.m.m.m.m.m.m.m.m.n.n.x.m.*.  2 a.m.m.",
"m.m.m.m.m.m.m.m.m.m.m.m.m.m.m.m.n.m.m.m.d.h [ m.m.n."
};
