/* XPM */
static char *xfce4_xpm[] = {
"14 16 15 1",
"0	c #FFFFFF",
"1	c #926D00",
"2	c #946B08",
"3	c #6C675E",
"4	c #8F8C89",
"5	c #706C62",
"6	c #A16B0E",
"7	c #A2A09E",
"8	c #A6A4A2",
"9	c #B47128",
"A	c #F3F1EE",
"B	c #817E7A",
"C	c #D0CECC",
"D	c #EAE8E5",
"E	c #A36B0B",
"12223444452221",
"66666478466666",
"69994778849996",
"69A4BBBBBB4A96",
"69ACCCCCCCCA96",
"69ADDDDDDDDA96",
"69ACCCCCCCCA96",
"69ADDDDDDDDA96",
"69ACCCCCCCCA96",
"69ADDDDDDDDA96",
"69ACCCCCCCCA96",
"69ADDDDDDDDA96",
"69ACCCCCCCCA96",
"69AAAAAAAAAA96",
"69999999999996",
"66666666666666"
};
