/* XPM */
static char * xfce4_clipman_plugin_32x32_xpm[] = {
"26 32 47 1",
" 	c None",
".	c #565656",
"+	c #6E6A64",
"@	c #626262",
"#	c #716D67",
"$	c #8D8D8D",
"%	c #ABABAB",
"&	c #AFAFAF",
"*	c #929292",
"=	c #5A5A5A",
"-	c #959595",
";	c #B5B5B5",
">	c #C3C3C3",
",	c #C8C8C8",
"'	c #BCBCBC",
")	c #9C9C9C",
"!	c #5B5B5B",
"~	c #8F7000",
"{	c #A16B0E",
"]	c #959492",
"^	c #A9A8A6",
"/	c #B1B0AE",
"(	c #B4B4B2",
"_	c #B6B6B4",
":	c #B0AFAD",
"<	c #9B9B99",
"[	c #946B07",
"}	c #B47128",
"|	c #8C8B88",
"1	c #979591",
"2	c #9D9B98",
"3	c #A2A09D",
"4	c #A5A3A0",
"5	c #A6A4A1",
"6	c #93918D",
"7	c #F3F1EE",
"8	c #636261",
"9	c #72716F",
"0	c #757371",
"a	c #797775",
"b	c #7B7A78",
"c	c #7D7C7A",
"d	c #7F7D7C",
"e	c #C7C5C3",
"f	c #EAE8E5",
"g	c #684B05",
"h	c #543D04",
"          .+@@#.          ",
"         .+$%&*#.         ",
"        =+-;>,')#!        ",
"~{{{{{{{+]^/(_(:<#{{{{{{{~",
"[{}}}}}+|123454326#}}}}}{[",
"[{}777890abcdddcba08777}{[",
"[{}7eeeeeeeeeeeeeeeeee7}{[",
"[{}7ffffffffffffffffff7}{[",
"[{}7eeeeeeeeeeeeeeeeee7}{[",
"[{}7ffffffffffffffffff7}{[",
"[{}7eeeeeeeeeeeeeeeeee7}{[",
"[{}7ffffffffffffffffff7}{[",
"[{}7eeeeeeeeeeeeeeeeee7}{[",
"[{}7ffffffffffffffffff7}{[",
"[{}7eeeeeeeeeeeeeeeeee7}{[",
"[{}7ffffffffffffffffff7}{[",
"[{}7eeeeeeeeeeeeeeeeee7}{[",
"[{}7ffffffffffffffffff7}{[",
"[{}7eeeeeeeeeeeeeeeeee7}{[",
"[{}7ffffffffffffffffff7}{[",
"[{}7eeeeeeeeeeeeeeeeee7}{[",
"[{}7ffffffffffffffffff7}{[",
"[{}7eeeeeeeeeeeeeeeeee7}{[",
"[{}7ffffffffffffffffff7}{[",
"[{}7eeeeeeeeeeeeeeeeee7}{[",
"[{}7ffffffffffffffffff7}{[",
"[{}7eeeeeeeeeeeeeeeeee7}{[",
"[{}7ffffffffffffffffff7}{[",
"[{}7eeeeeeeeeeeeeeeeee7}{[",
"[{}77777777777777777777}{[",
"[{}}}}}}}}}}}}}}}}}}}}}}{[",
"g{{{{{{{{{{{{{{{{{{{{{{{{h"};
