/* XPM */
static char * start_xpm[] = {
"32 32 223 2",
"  	c None",
". 	c #111111",
"+ 	c #151515",
"@ 	c #131313",
"# 	c #121212",
"$ 	c #121213",
"% 	c #141514",
"& 	c #141414",
"* 	c #171717",
"= 	c #161616",
"- 	c #151516",
"; 	c #151517",
"> 	c #161618",
", 	c #161617",
"' 	c #111212",
") 	c #131514",
"! 	c #0E0E0E",
"~ 	c #0F0F0F",
"{ 	c #0C0C0C",
"] 	c #1C1C1C",
"^ 	c #171718",
"/ 	c #181817",
"( 	c #101010",
"_ 	c #121313",
": 	c #121412",
"< 	c #0D0D0D",
"[ 	c #0A0A0A",
"} 	c #353535",
"| 	c #616161",
"1 	c #888888",
"2 	c #A7A7A7",
"3 	c #B9B9B9",
"4 	c #B7B7B7",
"5 	c #ABABAB",
"6 	c #878787",
"7 	c #636363",
"8 	c #383838",
"9 	c #090A09",
"0 	c #676767",
"a 	c #D9D9D9",
"b 	c #F4F4F4",
"c 	c #FFFFFF",
"d 	c #F5F5F5",
"e 	c #686868",
"f 	c #191919",
"g 	c #040404",
"h 	c #595959",
"i 	c #DEDEDE",
"j 	c #F9F9F9",
"k 	c #F8F8F8",
"l 	c #FEFEFE",
"m 	c #FDFDFD",
"n 	c #5A5A5A",
"o 	c #090909",
"p 	c #111112",
"q 	c #000000",
"r 	c #AEAEAE",
"s 	c #F7F7F7",
"t 	c #FAFAFA",
"u 	c #020202",
"v 	c #121214",
"w 	c #101011",
"x 	c #181818",
"y 	c #0C0C0D",
"z 	c #C6C6C6",
"A 	c #FCFCFC",
"B 	c #FBFBFB",
"C 	c #C7C7C7",
"D 	c #131315",
"E 	c #141415",
"F 	c #C8C8C9",
"G 	c #868686",
"H 	c #363636",
"I 	c #CACACA",
"J 	c #111113",
"K 	c #0B0B0D",
"L 	c #919192",
"M 	c #F3F3F3",
"N 	c #CECECE",
"O 	c #939393",
"P 	c #19191B",
"Q 	c #262629",
"R 	c #8E8E8E",
"S 	c #E3E3E3",
"T 	c #2A2A2A",
"U 	c #060608",
"V 	c #A9A9AA",
"W 	c #7E7E7E",
"X 	c #BEBEBE",
"Y 	c #F6F6F6",
"Z 	c #EDEDED",
"` 	c #CFCFCF",
" .	c #E0E0E0",
"..	c #D3D3D3",
"+.	c #CBCBCB",
"@.	c #ACACAC",
"#.	c #141416",
"$.	c #050507",
"%.	c #828282",
"&.	c #858585",
"*.	c #505050",
"=.	c #333333",
"-.	c #303030",
";.	c #E2E2E2",
">.	c #1F1F1F",
",.	c #050505",
"'.	c #262626",
").	c #0A0A0B",
"!.	c #8F8F90",
"~.	c #8F8F8F",
"{.	c #A1A1A1",
"].	c #5B5B5B",
"^.	c #030303",
"/.	c #4C4C4C",
"(.	c #434343",
"_.	c #9E9E9E",
":.	c #292929",
"<.	c #232323",
"[.	c #8D8D8D",
"}.	c #010103",
"|.	c #C9C9C9",
"1.	c #9B9B9B",
"2.	c #1A1A1A",
"3.	c #666666",
"4.	c #565656",
"5.	c #979797",
"6.	c #8C8C8C",
"7.	c #DADADA",
"8.	c #A5A5A5",
"9.	c #313131",
"0.	c #454545",
"a.	c #959595",
"b.	c #EFEFEF",
"c.	c #CDCDCD",
"d.	c #535353",
"e.	c #5D5D5D",
"f.	c #F1F1F1",
"g.	c #9F9F9F",
"h.	c #2F2F2F",
"i.	c #1E1E1F",
"j.	c #E4E4E4",
"k.	c #3B3B3B",
"l.	c #444444",
"m.	c #404040",
"n.	c #EBEBEB",
"o.	c #AFAFAF",
"p.	c #A6A6A6",
"q.	c #343434",
"r.	c #212121",
"s.	c #1C1C1E",
"t.	c #E9E9E9",
"u.	c #919191",
"v.	c #BFBFBF",
"w.	c #9C9C9C",
"x.	c #ADADAD",
"y.	c #B2B2B2",
"z.	c #A4A4A4",
"A.	c #2D2D2D",
"B.	c #18181A",
"C.	c #DEDEDF",
"D.	c #B5B5B5",
"E.	c #3E3E3E",
"F.	c #BBBBBB",
"G.	c #DDDDDD",
"H.	c #D0D0D0",
"I.	c #E6E6E6",
"J.	c #737373",
"K.	c #818181",
"L.	c #838383",
"M.	c #E5E5E5",
"N.	c #E8E8E8",
"O.	c #525252",
"P.	c #474747",
"Q.	c #A2A2A2",
"R.	c #D1D1D1",
"S.	c #E7E7E7",
"T.	c #E1E1E1",
"U.	c #DCDCDC",
"V.	c #C8C8C8",
"W.	c #C0C0C0",
"X.	c #BDBDBD",
"Y.	c #D6D6D6",
"Z.	c #A8A8A8",
"`.	c #070707",
" +	c #323232",
".+	c #969696",
"++	c #999999",
"@+	c #F2F2F2",
"#+	c #949494",
"$+	c #A0A0A0",
"%+	c #717171",
"&+	c #B3B3B3",
"*+	c #D5D5D5",
"=+	c #808080",
"-+	c #929292",
";+	c #8A8A8A",
">+	c #1D1D1D",
",+	c #3C3C3C",
"'+	c #3D3D3D",
")+	c #F0F0F0",
"!+	c #C5C5C5",
"~+	c #7A7A7A",
"{+	c #7F7F7F",
"]+	c #7D7D7D",
"^+	c #6C6C6C",
"/+	c #D8D8D8",
"(+	c #D2D2D2",
"_+	c #777777",
":+	c #8B8B8B",
"<+	c #9A9A9A",
"[+	c #898989",
"}+	c #CCCCCC",
"|+	c #EEEEEE",
"1+	c #131314",
"2+	c #232325",
"3+	c #FBFBFC",
"4+	c #272727",
"5+	c #222222",
"6+	c #797979",
"7+	c #252525",
"8+	c #202020",
"9+	c #282828",
"0+	c #171719",
". + @ . # # # $ % @ @ & @ * = + & + & & + = + + + + + - ; > , = ",
". # & . . # # ' ) & = & ! ~ ~ ~ ~ ~ { ~ @ ] & + + + + - ; > ^ / ",
"( # & . # # . _ : < [ } | 1 2 3 4 5 6 7 8 < ! & * + + - ; , * * ",
". # @ . # # = 9 . 0 a b c c c c c c c c d a e . < f = & + + + * ",
". . + # # + g h i c j k l c c c c c c m k j c i n o * + + + + * ",
"p . + @ * q r c s t l c c c c c c c c c c c m l c r u f * + = = ",
"v w @ x y z A c s c B l c c c c c c c c c c c c A m C < ] + = + ",
"D E $ q F c c G H H c m c c c c c c c c c c c c c A c I q f * + ",
"D J K L l M N q ] G c l c c c c c c c c c c c c c c l c O { = + ",
"D P Q c A A R q S c t t c c c A A c c A B B A c c c c A c T ] + ",
"; U V c l c W q X Y Z ` c l c  ...c c M I +.Y c c c c l c @.{ * ",
"#.$.c A c c %.o q &.*.q c B c =.-.;...>.,.g '.S k c c c A c [ x ",
").!.j l c c ~.< {.c ].^.c B A /.(.c & -._._.:.<.c m c l l B [.{ ",
"}.|.Y c c l 1.2.k c 3.* c b B 4.h i ] 5.c c 6.] l l c c c k |.g ",
"#.7.j c c c 8.9.b c _.0.a.b.c.d.e.f.:.g.c l {.h.s c c c c j 7.x ",
"i.j.j c c c _.'.Y A s h k.l.k.m.a n.~.o.c m p.q.b.c c c c t j.r.",
"s.;.t c c A t.u.c m A c v.w.x.b A c y.b.t l z.A.A m c c c t S r.",
"B.C.k c c c c c l l c l c c c c m c c c c m D.E.F.c l c c t G.2.",
"U H.Y l c l Z I.A c c c c W c A c i J.K.L.M.N.O.P.Q.N c c k R.[ ",
"$.p.k c c m S.T.A l c B U.V.~.c c |.W.R.X.a A Z u.O Y.c c t Z.`.",
"J  +c A c m S.I.A l l c x.+.1 Y l c..+8.++G.j s c c m l A c  += ",
"> q I.c c l @+O #+$+c c %+&+_.U.B *+=+-+;+G.t c l A c c l S.q f ",
"#.>+,+c l c c m B c c c c c c c c c s B m f.c c c c c m c '+<.* ",
"#.+ { +.)+A !+~+K.K.{+{+]+W W {+K.].< ! & { ^+Q.++n /+@+` . * * ",
"#.# @ y B j f.T.T.;.;.;.;.T.;.T.;.(+_+:+<+[+}+/+*++.|+A { = f * ",
"1+& & ^ 2+3+b.c c c c c c c c c c c c c c c c c c M l 4+f * = * ",
"# & @ # ; B.@+c B c c c c c c c c c l c c l c A c f.>+* + * * * ",
"# & @ + 1+p & {.c t A l c c l l c c l c l m t c $+x + * * * * * ",
"# & & @ @ @ * [ ,+!+l c c c c l c c l c c c z k.! 2.= = * * * * ",
"# & & # + & # @ @ . 5+_+z M Y j B s @+C 6+7+. = * = = = * * * * ",
". & + # + & # & = + 8+! q q ] '.9+] q q ( <.2.& * = , ^ ^ * * * ",
". @ + # & # @ @ = @ @ = x * & # + + x x f = = = = = , > 0+* * * "};
